<?xml version="1.0" encoding="UTF-8" standalone="no"?>
<!DOCTYPE svg PUBLIC "-//W3C//DTD SVG 1.1//EN"
 "http://www.w3.org/Graphics/SVG/1.1/DTD/svg11.dtd">
<!-- Generated by graphviz version 2.38.0 (20140413.2041)
 -->
<!-- Title: G Pages: 1 -->
<svg width="857pt" height="2334pt"
 viewBox="0.00 0.00 857.25 2334.00" xmlns="http://www.w3.org/2000/svg" xmlns:xlink="http://www.w3.org/1999/xlink">
<g id="graph0" class="graph" transform="scale(1 1) rotate(0) translate(4 2330)">
<title>G</title>
<polygon fill="white" stroke="none" points="-4,4 -4,-2330 853.25,-2330 853.25,4 -4,4"/>
<g id="clust1" class="cluster"><title>cluster_Global</title>
<path fill="none" stroke="gray" d="M620.25,-8C620.25,-8 829.25,-8 829.25,-8 835.25,-8 841.25,-14 841.25,-20 841.25,-20 841.25,-2306 841.25,-2306 841.25,-2312 835.25,-2318 829.25,-2318 829.25,-2318 620.25,-2318 620.25,-2318 614.25,-2318 608.25,-2312 608.25,-2306 608.25,-2306 608.25,-20 608.25,-20 608.25,-14 614.25,-8 620.25,-8"/>
<text text-anchor="middle" x="724.75" y="-2305.2" font-family="Times,serif" font-size="11.00" fill="gray">Global</text>
</g>
<g id="clust2" class="cluster"><title>cluster_\AppBundle</title>
<path fill="none" stroke="gray" d="M628.25,-168C628.25,-168 821.25,-168 821.25,-168 827.25,-168 833.25,-174 833.25,-180 833.25,-180 833.25,-2278 833.25,-2278 833.25,-2284 827.25,-2290 821.25,-2290 821.25,-2290 628.25,-2290 628.25,-2290 622.25,-2290 616.25,-2284 616.25,-2278 616.25,-2278 616.25,-180 616.25,-180 616.25,-174 622.25,-168 628.25,-168"/>
<text text-anchor="middle" x="724.75" y="-2277.2" font-family="Times,serif" font-size="11.00" fill="gray">AppBundle</text>
</g>
<g id="clust3" class="cluster"><title>cluster_\AppBundle\Form</title>
<path fill="none" stroke="gray" d="M649.75,-1488C649.75,-1488 799.75,-1488 799.75,-1488 805.75,-1488 811.75,-1494 811.75,-1500 811.75,-1500 811.75,-2250 811.75,-2250 811.75,-2256 805.75,-2262 799.75,-2262 799.75,-2262 649.75,-2262 649.75,-2262 643.75,-2262 637.75,-2256 637.75,-2250 637.75,-2250 637.75,-1500 637.75,-1500 637.75,-1494 643.75,-1488 649.75,-1488"/>
<text text-anchor="middle" x="724.75" y="-2249.2" font-family="Times,serif" font-size="11.00" fill="gray">Form</text>
</g>
<g id="clust4" class="cluster"><title>cluster_\AppBundle\Entity</title>
<path fill="none" stroke="gray" d="M663.25,-814C663.25,-814 786.25,-814 786.25,-814 792.25,-814 798.25,-820 798.25,-826 798.25,-826 798.25,-1468 798.25,-1468 798.25,-1474 792.25,-1480 786.25,-1480 786.25,-1480 663.25,-1480 663.25,-1480 657.25,-1480 651.25,-1474 651.25,-1468 651.25,-1468 651.25,-826 651.25,-826 651.25,-820 657.25,-814 663.25,-814"/>
<text text-anchor="middle" x="724.75" y="-1467.2" font-family="Times,serif" font-size="11.00" fill="gray">Entity</text>
</g>
<g id="clust5" class="cluster"><title>cluster_\AppBundle\Controller</title>
<path fill="none" stroke="gray" d="M649.75,-356C649.75,-356 799.75,-356 799.75,-356 805.75,-356 811.75,-362 811.75,-368 811.75,-368 811.75,-794 811.75,-794 811.75,-800 805.75,-806 799.75,-806 799.75,-806 649.75,-806 649.75,-806 643.75,-806 637.75,-800 637.75,-794 637.75,-794 637.75,-368 637.75,-368 637.75,-362 643.75,-356 649.75,-356"/>
<text text-anchor="middle" x="724.75" y="-793.2" font-family="Times,serif" font-size="11.00" fill="gray">Controller</text>
</g>
<g id="clust6" class="cluster"><title>cluster_\AppBundle\EventListener</title>
<path fill="none" stroke="gray" d="M636.25,-276C636.25,-276 813.25,-276 813.25,-276 819.25,-276 825.25,-282 825.25,-288 825.25,-288 825.25,-336 825.25,-336 825.25,-342 819.25,-348 813.25,-348 813.25,-348 636.25,-348 636.25,-348 630.25,-348 624.25,-342 624.25,-336 624.25,-336 624.25,-288 624.25,-288 624.25,-282 630.25,-276 636.25,-276"/>
<text text-anchor="middle" x="724.75" y="-335.2" font-family="Times,serif" font-size="11.00" fill="gray">EventListener</text>
</g>
<g id="clust7" class="cluster"><title>cluster_\Doctrine</title>
<path fill="none" stroke="gray" d="M653.75,-16C653.75,-16 795.75,-16 795.75,-16 801.75,-16 807.75,-22 807.75,-28 807.75,-28 807.75,-148 807.75,-148 807.75,-154 801.75,-160 795.75,-160 795.75,-160 653.75,-160 653.75,-160 647.75,-160 641.75,-154 641.75,-148 641.75,-148 641.75,-28 641.75,-28 641.75,-22 647.75,-16 653.75,-16"/>
<text text-anchor="middle" x="724.75" y="-147.2" font-family="Times,serif" font-size="11.00" fill="gray">Doctrine</text>
</g>
<g id="clust8" class="cluster"><title>cluster_\Doctrine\Common</title>
<path fill="none" stroke="gray" d="M661.75,-24C661.75,-24 787.75,-24 787.75,-24 793.75,-24 799.75,-30 799.75,-36 799.75,-36 799.75,-120 799.75,-120 799.75,-126 793.75,-132 787.75,-132 787.75,-132 661.75,-132 661.75,-132 655.75,-132 649.75,-126 649.75,-120 649.75,-120 649.75,-36 649.75,-36 649.75,-30 655.75,-24 661.75,-24"/>
<text text-anchor="middle" x="724.75" y="-119.2" font-family="Times,serif" font-size="11.00" fill="gray">Common</text>
</g>
<g id="clust9" class="cluster"><title>cluster_\Doctrine\Common\Collections</title>
<path fill="none" stroke="gray" d="M669.75,-32C669.75,-32 779.75,-32 779.75,-32 785.75,-32 791.75,-38 791.75,-44 791.75,-44 791.75,-92 791.75,-92 791.75,-98 785.75,-104 779.75,-104 779.75,-104 669.75,-104 669.75,-104 663.75,-104 657.75,-98 657.75,-92 657.75,-92 657.75,-44 657.75,-44 657.75,-38 663.75,-32 669.75,-32"/>
<text text-anchor="middle" x="724.75" y="-91.2" font-family="Times,serif" font-size="11.00" fill="gray">Collections</text>
</g>
<!-- \\AppBundle\\Form\\MedicationResultsType -->
<g id="node1" class="node"><title>\\AppBundle\\Form\\MedicationResultsType</title>
<polygon fill="none" stroke="black" points="803.75,-2234 645.75,-2234 645.75,-2198 803.75,-2198 803.75,-2234"/>
<text text-anchor="middle" x="724.75" y="-2213.2" font-family="Courier,monospace" font-size="11.00">MedicationResultsType</text>
</g>
<!-- \\Symfony\\Component\\Form\\AbstractType -->
<g id="node39" class="node"><title>\\Symfony\\Component\\Form\\AbstractType</title>
<ellipse fill="none" stroke="black" cx="280.125" cy="-1865" rx="203.364" ry="18"/>
<text text-anchor="middle" x="280.125" y="-1861.3" font-family="Times,serif" font-size="14.00" fill="gray">\Symfony\Component\Form\AbstractType</text>
</g>
<!-- \\AppBundle\\Form\\MedicationResultsType&#45;&gt;\\Symfony\\Component\\Form\\AbstractType -->
<g id="edge1" class="edge"><title>\\AppBundle\\Form\\MedicationResultsType&#45;&gt;\\Symfony\\Component\\Form\\AbstractType</title>
<path fill="none" stroke="black" d="M645.455,-2203.89C632.566,-2200.18 619.694,-2195.33 608.25,-2189 466.615,-2110.68 344.388,-1953.57 299.471,-1891.3"/>
<polygon fill="none" stroke="black" points="302.315,-1889.26 293.652,-1883.16 296.62,-1893.33 302.315,-1889.26"/>
</g>
<!-- \\AppBundle\\Form\\CaseType -->
<g id="node2" class="node"><title>\\AppBundle\\Form\\CaseType</title>
<polygon fill="none" stroke="black" points="760.25,-2180 689.25,-2180 689.25,-2144 760.25,-2144 760.25,-2180"/>
<text text-anchor="middle" x="724.75" y="-2159.2" font-family="Courier,monospace" font-size="11.00">CaseType</text>
</g>
<!-- \\AppBundle\\Form\\CaseType&#45;&gt;\\Symfony\\Component\\Form\\AbstractType -->
<g id="edge9" class="edge"><title>\\AppBundle\\Form\\CaseType&#45;&gt;\\Symfony\\Component\\Form\\AbstractType</title>
<path fill="none" stroke="black" d="M689.243,-2158.16C665.519,-2154.52 633.809,-2147.66 608.25,-2135 477.74,-2070.37 353.641,-1944.45 303.941,-1890.52"/>
<polygon fill="none" stroke="black" points="306.488,-1888.12 297.156,-1883.1 301.322,-1892.84 306.488,-1888.12"/>
</g>
<!-- \\AppBundle\\Form\\MedicationsType -->
<g id="node3" class="node"><title>\\AppBundle\\Form\\MedicationsType</title>
<polygon fill="none" stroke="black" points="783.75,-2126 665.75,-2126 665.75,-2090 783.75,-2090 783.75,-2126"/>
<text text-anchor="middle" x="724.75" y="-2105.2" font-family="Courier,monospace" font-size="11.00">MedicationsType</text>
</g>
<!-- \\AppBundle\\Form\\MedicationsType&#45;&gt;\\Symfony\\Component\\Form\\AbstractType -->
<g id="edge11" class="edge"><title>\\AppBundle\\Form\\MedicationsType&#45;&gt;\\Symfony\\Component\\Form\\AbstractType</title>
<path fill="none" stroke="black" d="M665.482,-2098.58C646.756,-2094.45 626.218,-2088.74 608.25,-2081 488.745,-2029.54 365.287,-1934.47 310.433,-1889.63"/>
<polygon fill="none" stroke="black" points="312.484,-1886.79 302.538,-1883.13 308.036,-1892.19 312.484,-1886.79"/>
</g>
<!-- \\AppBundle\\Form\\TestType -->
<g id="node4" class="node"><title>\\AppBundle\\Form\\TestType</title>
<polygon fill="none" stroke="black" points="760.25,-2072 689.25,-2072 689.25,-2036 760.25,-2036 760.25,-2072"/>
<text text-anchor="middle" x="724.75" y="-2051.2" font-family="Courier,monospace" font-size="11.00">TestType</text>
</g>
<!-- \\AppBundle\\Form\\TestType&#45;&gt;\\Symfony\\Component\\Form\\AbstractType -->
<g id="edge12" class="edge"><title>\\AppBundle\\Form\\TestType&#45;&gt;\\Symfony\\Component\\Form\\AbstractType</title>
<path fill="none" stroke="black" d="M689.038,-2048.05C665.786,-2043.54 634.706,-2036.5 608.25,-2027 499.604,-1987.99 379.955,-1922.48 319.964,-1887.93"/>
<polygon fill="none" stroke="black" points="321.615,-1884.84 311.206,-1882.86 318.108,-1890.9 321.615,-1884.84"/>
</g>
<!-- \\AppBundle\\Form\\AdminUserType -->
<g id="node5" class="node"><title>\\AppBundle\\Form\\AdminUserType</title>
<polygon fill="none" stroke="black" points="776.75,-2018 672.75,-2018 672.75,-1982 776.75,-1982 776.75,-2018"/>
<text text-anchor="middle" x="724.75" y="-1997.2" font-family="Courier,monospace" font-size="11.00">AdminUserType</text>
</g>
<!-- \\AppBundle\\Form\\AdminUserType&#45;&gt;\\Symfony\\Component\\Form\\AbstractType -->
<g id="edge15" class="edge"><title>\\AppBundle\\Form\\AdminUserType&#45;&gt;\\Symfony\\Component\\Form\\AbstractType</title>
<path fill="none" stroke="black" d="M672.614,-1989.08C652.456,-1984.5 629.164,-1978.88 608.25,-1973 512.966,-1946.19 404.158,-1908.91 339.138,-1885.9"/>
<polygon fill="none" stroke="black" points="340.074,-1882.51 329.479,-1882.47 337.733,-1889.11 340.074,-1882.51"/>
</g>
<!-- \\AppBundle\\Form\\TestResultsType -->
<g id="node6" class="node"><title>\\AppBundle\\Form\\TestResultsType</title>
<polygon fill="none" stroke="black" points="783.75,-1964 665.75,-1964 665.75,-1928 783.75,-1928 783.75,-1964"/>
<text text-anchor="middle" x="724.75" y="-1943.2" font-family="Courier,monospace" font-size="11.00">TestResultsType</text>
</g>
<!-- \\AppBundle\\Form\\TestResultsType&#45;&gt;\\Symfony\\Component\\Form\\AbstractType -->
<g id="edge17" class="edge"><title>\\AppBundle\\Form\\TestResultsType&#45;&gt;\\Symfony\\Component\\Form\\AbstractType</title>
<path fill="none" stroke="black" d="M665.43,-1935.33C592.758,-1922.03 467.473,-1899.1 379.765,-1883.05"/>
<polygon fill="none" stroke="black" points="380.263,-1879.58 369.796,-1881.23 379.003,-1886.47 380.263,-1879.58"/>
</g>
<!-- \\AppBundle\\Form\\AdminType -->
<g id="node7" class="node"><title>\\AppBundle\\Form\\AdminType</title>
<polygon fill="none" stroke="black" points="763.25,-1910 686.25,-1910 686.25,-1874 763.25,-1874 763.25,-1910"/>
<text text-anchor="middle" x="724.75" y="-1889.2" font-family="Courier,monospace" font-size="11.00">AdminType</text>
</g>
<!-- \\AppBundle\\Form\\AdminType&#45;&gt;\\Symfony\\Component\\Form\\AbstractType -->
<g id="edge18" class="edge"><title>\\AppBundle\\Form\\AdminType&#45;&gt;\\Symfony\\Component\\Form\\AbstractType</title>
<path fill="none" stroke="black" d="M686.012,-1889.7C635.487,-1886.62 542.449,-1880.94 458.289,-1875.81"/>
<polygon fill="none" stroke="black" points="458.268,-1872.3 448.073,-1875.18 457.842,-1879.29 458.268,-1872.3"/>
</g>
<!-- \\AppBundle\\Form\\TestsType -->
<g id="node8" class="node"><title>\\AppBundle\\Form\\TestsType</title>
<polygon fill="none" stroke="black" points="763.25,-1856 686.25,-1856 686.25,-1820 763.25,-1820 763.25,-1856"/>
<text text-anchor="middle" x="724.75" y="-1835.2" font-family="Courier,monospace" font-size="11.00">TestsType</text>
</g>
<!-- \\AppBundle\\Form\\TestsType&#45;&gt;\\Symfony\\Component\\Form\\AbstractType -->
<g id="edge19" class="edge"><title>\\AppBundle\\Form\\TestsType&#45;&gt;\\Symfony\\Component\\Form\\AbstractType</title>
<path fill="none" stroke="black" d="M686.012,-1840.3C635.487,-1843.38 542.449,-1849.06 458.289,-1854.19"/>
<polygon fill="none" stroke="black" points="457.842,-1850.71 448.073,-1854.82 458.268,-1857.7 457.842,-1850.71"/>
</g>
<!-- \\AppBundle\\Form\\DayType -->
<g id="node9" class="node"><title>\\AppBundle\\Form\\DayType</title>
<polygon fill="none" stroke="black" points="756.75,-1802 692.75,-1802 692.75,-1766 756.75,-1766 756.75,-1802"/>
<text text-anchor="middle" x="724.75" y="-1781.2" font-family="Courier,monospace" font-size="11.00">DayType</text>
</g>
<!-- \\AppBundle\\Form\\DayType&#45;&gt;\\Symfony\\Component\\Form\\AbstractType -->
<g id="edge22" class="edge"><title>\\AppBundle\\Form\\DayType&#45;&gt;\\Symfony\\Component\\Form\\AbstractType</title>
<path fill="none" stroke="black" d="M692.626,-1789.7C628.608,-1801.41 479.806,-1828.64 379.81,-1846.94"/>
<polygon fill="none" stroke="black" points="378.893,-1843.55 369.686,-1848.79 380.153,-1850.44 378.893,-1843.55"/>
</g>
<!-- \\AppBundle\\Form\\HotspotType -->
<g id="node10" class="node"><title>\\AppBundle\\Form\\HotspotType</title>
<polygon fill="none" stroke="black" points="770.25,-1748 679.25,-1748 679.25,-1712 770.25,-1712 770.25,-1748"/>
<text text-anchor="middle" x="724.75" y="-1727.2" font-family="Courier,monospace" font-size="11.00">HotspotType</text>
</g>
<!-- \\AppBundle\\Form\\HotspotType&#45;&gt;\\Symfony\\Component\\Form\\AbstractType -->
<g id="edge23" class="edge"><title>\\AppBundle\\Form\\HotspotType&#45;&gt;\\Symfony\\Component\\Form\\AbstractType</title>
<path fill="none" stroke="black" d="M679.087,-1739.46C657.562,-1744.27 631.443,-1750.47 608.25,-1757 512.966,-1783.81 404.158,-1821.09 339.138,-1844.1"/>
<polygon fill="none" stroke="black" points="337.733,-1840.89 329.479,-1847.53 340.074,-1847.49 337.733,-1840.89"/>
</g>
<!-- \\AppBundle\\Form\\MedicationType -->
<g id="node11" class="node"><title>\\AppBundle\\Form\\MedicationType</title>
<polygon fill="none" stroke="black" points="780.25,-1694 669.25,-1694 669.25,-1658 780.25,-1658 780.25,-1694"/>
<text text-anchor="middle" x="724.75" y="-1673.2" font-family="Courier,monospace" font-size="11.00">MedicationType</text>
</g>
<!-- \\AppBundle\\Form\\MedicationType&#45;&gt;\\Symfony\\Component\\Form\\AbstractType -->
<g id="edge24" class="edge"><title>\\AppBundle\\Form\\MedicationType&#45;&gt;\\Symfony\\Component\\Form\\AbstractType</title>
<path fill="none" stroke="black" d="M669.236,-1686.04C649.714,-1690.34 627.728,-1696.01 608.25,-1703 499.604,-1742.01 379.955,-1807.52 319.964,-1842.07"/>
<polygon fill="none" stroke="black" points="318.108,-1839.1 311.206,-1847.14 321.615,-1845.16 318.108,-1839.1"/>
</g>
<!-- \\AppBundle\\Form\\AnimalType -->
<g id="node12" class="node"><title>\\AppBundle\\Form\\AnimalType</title>
<polygon fill="none" stroke="black" points="766.75,-1640 682.75,-1640 682.75,-1604 766.75,-1604 766.75,-1640"/>
<text text-anchor="middle" x="724.75" y="-1619.2" font-family="Courier,monospace" font-size="11.00">AnimalType</text>
</g>
<!-- \\AppBundle\\Form\\AnimalType&#45;&gt;\\Symfony\\Component\\Form\\AbstractType -->
<g id="edge25" class="edge"><title>\\AppBundle\\Form\\AnimalType&#45;&gt;\\Symfony\\Component\\Form\\AbstractType</title>
<path fill="none" stroke="black" d="M682.543,-1627.98C659.984,-1632.14 631.892,-1638.82 608.25,-1649 488.745,-1700.46 365.287,-1795.53 310.433,-1840.37"/>
<polygon fill="none" stroke="black" points="308.036,-1837.81 302.538,-1846.87 312.484,-1843.21 308.036,-1837.81"/>
</g>
<!-- \\AppBundle\\Form\\DefaultType -->
<g id="node13" class="node"><title>\\AppBundle\\Form\\DefaultType</title>
<polygon fill="none" stroke="black" points="770.25,-1586 679.25,-1586 679.25,-1550 770.25,-1550 770.25,-1586"/>
<text text-anchor="middle" x="724.75" y="-1565.2" font-family="Courier,monospace" font-size="11.00">DefaultType</text>
</g>
<!-- \\AppBundle\\Form\\DefaultType&#45;&gt;\\Symfony\\Component\\Form\\AbstractType -->
<g id="edge26" class="edge"><title>\\AppBundle\\Form\\DefaultType&#45;&gt;\\Symfony\\Component\\Form\\AbstractType</title>
<path fill="none" stroke="black" d="M679.065,-1573.53C656.934,-1577.47 630.302,-1584.08 608.25,-1595 477.74,-1659.63 353.641,-1785.55 303.941,-1839.48"/>
<polygon fill="none" stroke="black" points="301.322,-1837.16 297.156,-1846.9 306.488,-1841.88 301.322,-1837.16"/>
</g>
<!-- \\AppBundle\\Form\\UserType -->
<g id="node14" class="node"><title>\\AppBundle\\Form\\UserType</title>
<polygon fill="none" stroke="black" points="760.25,-1532 689.25,-1532 689.25,-1496 760.25,-1496 760.25,-1532"/>
<text text-anchor="middle" x="724.75" y="-1511.2" font-family="Courier,monospace" font-size="11.00">UserType</text>
</g>
<!-- \\AppBundle\\Form\\UserType&#45;&gt;\\Symfony\\Component\\Form\\AbstractType -->
<g id="edge27" class="edge"><title>\\AppBundle\\Form\\UserType&#45;&gt;\\Symfony\\Component\\Form\\AbstractType</title>
<path fill="none" stroke="black" d="M689.123,-1517.08C665.198,-1520.38 633.299,-1527.15 608.25,-1541 466.615,-1619.32 344.388,-1776.43 299.471,-1838.7"/>
<polygon fill="none" stroke="black" points="296.62,-1836.67 293.652,-1846.84 302.315,-1840.74 296.62,-1836.67"/>
</g>
<!-- \\AppBundle\\Entity\\HotSpot -->
<g id="node15" class="node"><title>\\AppBundle\\Entity\\HotSpot</title>
<polygon fill="none" stroke="black" points="756.75,-1452 692.75,-1452 692.75,-1416 756.75,-1416 756.75,-1452"/>
<text text-anchor="middle" x="724.75" y="-1431.2" font-family="Courier,monospace" font-size="11.00">HotSpot</text>
</g>
<!-- \\AppBundle\\Entity\\Test -->
<g id="node16" class="node"><title>\\AppBundle\\Entity\\Test</title>
<polygon fill="none" stroke="black" points="751.75,-1398 697.75,-1398 697.75,-1362 751.75,-1362 751.75,-1398"/>
<text text-anchor="middle" x="724.75" y="-1377.2" font-family="Courier,monospace" font-size="11.00">Test</text>
</g>
<!-- \\AppBundle\\Entity\\MedicationResults -->
<g id="node17" class="node"><title>\\AppBundle\\Entity\\MedicationResults</title>
<polygon fill="none" stroke="black" points="790.25,-1344 659.25,-1344 659.25,-1308 790.25,-1308 790.25,-1344"/>
<text text-anchor="middle" x="724.75" y="-1323.2" font-family="Courier,monospace" font-size="11.00">MedicationResults</text>
</g>
<!-- \\AppBundle\\Entity\\TestResults -->
<g id="node18" class="node"><title>\\AppBundle\\Entity\\TestResults</title>
<polygon fill="none" stroke="black" points="770.25,-1290 679.25,-1290 679.25,-1254 770.25,-1254 770.25,-1290"/>
<text text-anchor="middle" x="724.75" y="-1269.2" font-family="Courier,monospace" font-size="11.00">TestResults</text>
</g>
<!-- \\AppBundle\\Entity\\User -->
<g id="node19" class="node"><title>\\AppBundle\\Entity\\User</title>
<polygon fill="none" stroke="black" points="751.75,-1236 697.75,-1236 697.75,-1200 751.75,-1200 751.75,-1236"/>
<text text-anchor="middle" x="724.75" y="-1215.2" font-family="Courier,monospace" font-size="11.00">User</text>
</g>
<!-- \\Symfony\\Component\\Security\\Core\\User\\UserInterface -->
<g id="node42" class="node"><title>\\Symfony\\Component\\Security\\Core\\User\\UserInterface</title>
<ellipse fill="none" stroke="black" cx="280.125" cy="-1245" rx="270.252" ry="18"/>
<text text-anchor="middle" x="280.125" y="-1241.3" font-family="Times,serif" font-size="14.00" fill="gray">\Symfony\Component\Security\Core\User\UserInterface</text>
</g>
<!-- \\AppBundle\\Entity\\User&#45;&gt;\\Symfony\\Component\\Security\\Core\\User\\UserInterface -->
<g id="edge6" class="edge"><title>\\AppBundle\\Entity\\User&#45;&gt;\\Symfony\\Component\\Security\\Core\\User\\UserInterface</title>
<path fill="none" stroke="black" stroke-dasharray="1,5" d="M697.715,-1219.59C656.402,-1222.11 572.083,-1227.25 490.043,-1232.26"/>
<polygon fill="none" stroke="black" points="489.82,-1228.76 480.052,-1232.87 490.247,-1235.75 489.82,-1228.76"/>
</g>
<!-- \\Serializable -->
<g id="node43" class="node"><title>\\Serializable</title>
<ellipse fill="none" stroke="black" cx="280.125" cy="-1191" rx="67.6881" ry="18"/>
<text text-anchor="middle" x="280.125" y="-1187.3" font-family="Times,serif" font-size="14.00" fill="gray">\Serializable</text>
</g>
<!-- \\AppBundle\\Entity\\User&#45;&gt;\\Serializable -->
<g id="edge7" class="edge"><title>\\AppBundle\\Entity\\User&#45;&gt;\\Serializable</title>
<path fill="none" stroke="black" stroke-dasharray="1,5" d="M697.715,-1216.41C631.963,-1212.4 457.278,-1201.75 356.217,-1195.58"/>
<polygon fill="none" stroke="black" points="356.267,-1192.08 346.073,-1194.96 355.841,-1199.06 356.267,-1192.08"/>
</g>
<!-- \\AppBundle\\Entity\\Results -->
<g id="node20" class="node"><title>\\AppBundle\\Entity\\Results</title>
<polygon fill="none" stroke="black" points="756.75,-1182 692.75,-1182 692.75,-1146 756.75,-1146 756.75,-1182"/>
<text text-anchor="middle" x="724.75" y="-1161.2" font-family="Courier,monospace" font-size="11.00">Results</text>
</g>
<!-- \\AppBundle\\Entity\\CaseStudy -->
<g id="node21" class="node"><title>\\AppBundle\\Entity\\CaseStudy</title>
<polygon fill="none" stroke="black" points="763.25,-1128 686.25,-1128 686.25,-1092 763.25,-1092 763.25,-1128"/>
<text text-anchor="middle" x="724.75" y="-1107.2" font-family="Courier,monospace" font-size="11.00">CaseStudy</text>
</g>
<!-- \\AppBundle\\Entity\\Day -->
<g id="node22" class="node"><title>\\AppBundle\\Entity\\Day</title>
<polygon fill="none" stroke="black" points="751.75,-1074 697.75,-1074 697.75,-1038 751.75,-1038 751.75,-1074"/>
<text text-anchor="middle" x="724.75" y="-1053.2" font-family="Courier,monospace" font-size="11.00">Day</text>
</g>
<!-- \\AppBundle\\Entity\\Medication -->
<g id="node23" class="node"><title>\\AppBundle\\Entity\\Medication</title>
<polygon fill="none" stroke="black" points="766.75,-1020 682.75,-1020 682.75,-984 766.75,-984 766.75,-1020"/>
<text text-anchor="middle" x="724.75" y="-999.2" font-family="Courier,monospace" font-size="11.00">Medication</text>
</g>
<!-- \\AppBundle\\Entity\\UserDay -->
<g id="node24" class="node"><title>\\AppBundle\\Entity\\UserDay</title>
<polygon fill="none" stroke="black" points="756.75,-966 692.75,-966 692.75,-930 756.75,-930 756.75,-966"/>
<text text-anchor="middle" x="724.75" y="-945.2" font-family="Courier,monospace" font-size="11.00">UserDay</text>
</g>
<!-- \\AppBundle\\Entity\\HotSpotInfo -->
<g id="node25" class="node"><title>\\AppBundle\\Entity\\HotSpotInfo</title>
<polygon fill="none" stroke="black" points="770.25,-912 679.25,-912 679.25,-876 770.25,-876 770.25,-912"/>
<text text-anchor="middle" x="724.75" y="-891.2" font-family="Courier,monospace" font-size="11.00">HotSpotInfo</text>
</g>
<!-- \\AppBundle\\Entity\\Animal -->
<g id="node26" class="node"><title>\\AppBundle\\Entity\\Animal</title>
<polygon fill="none" stroke="black" points="753.25,-858 696.25,-858 696.25,-822 753.25,-822 753.25,-858"/>
<text text-anchor="middle" x="724.75" y="-837.2" font-family="Courier,monospace" font-size="11.00">Animal</text>
</g>
<!-- \\AppBundle\\Controller\\DefaultController -->
<g id="node27" class="node"><title>\\AppBundle\\Controller\\DefaultController</title>
<polygon fill="none" stroke="black" points="790.25,-778 659.25,-778 659.25,-742 790.25,-742 790.25,-778"/>
<text text-anchor="middle" x="724.75" y="-757.2" font-family="Courier,monospace" font-size="11.00">DefaultController</text>
</g>
<!-- \\Symfony\\Bundle\\FrameworkBundle\\Controller\\Controller -->
<g id="node40" class="node"><title>\\Symfony\\Bundle\\FrameworkBundle\\Controller\\Controller</title>
<ellipse fill="none" stroke="black" cx="280.125" cy="-571" rx="280.25" ry="18"/>
<text text-anchor="middle" x="280.125" y="-567.3" font-family="Times,serif" font-size="14.00" fill="gray">\Symfony\Bundle\FrameworkBundle\Controller\Controller</text>
</g>
<!-- \\AppBundle\\Controller\\DefaultController&#45;&gt;\\Symfony\\Bundle\\FrameworkBundle\\Controller\\Controller -->
<g id="edge2" class="edge"><title>\\AppBundle\\Controller\\DefaultController&#45;&gt;\\Symfony\\Bundle\\FrameworkBundle\\Controller\\Controller</title>
<path fill="none" stroke="black" d="M659.142,-747.659C642.348,-743.704 624.434,-738.811 608.25,-733 499.888,-694.091 380.58,-628.82 320.435,-594.198"/>
<polygon fill="none" stroke="black" points="322.058,-591.094 311.65,-589.117 318.553,-597.153 322.058,-591.094"/>
</g>
<!-- \\AppBundle\\Controller\\MedicationsController -->
<g id="node28" class="node"><title>\\AppBundle\\Controller\\MedicationsController</title>
<polygon fill="none" stroke="black" points="803.75,-724 645.75,-724 645.75,-688 803.75,-688 803.75,-724"/>
<text text-anchor="middle" x="724.75" y="-703.2" font-family="Courier,monospace" font-size="11.00">MedicationsController</text>
</g>
<!-- \\AppBundle\\Controller\\MedicationsController&#45;&gt;\\Symfony\\Bundle\\FrameworkBundle\\Controller\\Controller -->
<g id="edge3" class="edge"><title>\\AppBundle\\Controller\\MedicationsController&#45;&gt;\\Symfony\\Bundle\\FrameworkBundle\\Controller\\Controller</title>
<path fill="none" stroke="black" d="M645.536,-688.715C633.018,-685.662 620.243,-682.374 608.25,-679 513.376,-652.307 405.096,-615.228 339.981,-592.194"/>
<polygon fill="none" stroke="black" points="340.897,-588.806 330.302,-588.761 338.557,-595.403 340.897,-588.806"/>
</g>
<!-- \\AppBundle\\Controller\\DayController -->
<g id="node29" class="node"><title>\\AppBundle\\Controller\\DayController</title>
<polygon fill="none" stroke="black" points="776.75,-670 672.75,-670 672.75,-634 776.75,-634 776.75,-670"/>
<text text-anchor="middle" x="724.75" y="-649.2" font-family="Courier,monospace" font-size="11.00">DayController</text>
</g>
<!-- \\AppBundle\\Controller\\DayController&#45;&gt;\\Symfony\\Bundle\\FrameworkBundle\\Controller\\Controller -->
<g id="edge4" class="edge"><title>\\AppBundle\\Controller\\DayController&#45;&gt;\\Symfony\\Bundle\\FrameworkBundle\\Controller\\Controller</title>
<path fill="none" stroke="black" d="M672.543,-642.629C602.244,-629.765 474.284,-606.348 383.835,-589.796"/>
<polygon fill="none" stroke="black" points="384.293,-586.322 373.826,-587.964 383.033,-593.207 384.293,-586.322"/>
</g>
<!-- \\AppBundle\\Controller\\FileController -->
<g id="node30" class="node"><title>\\AppBundle\\Controller\\FileController</title>
<polygon fill="none" stroke="black" points="780.25,-616 669.25,-616 669.25,-580 780.25,-580 780.25,-616"/>
<text text-anchor="middle" x="724.75" y="-595.2" font-family="Courier,monospace" font-size="11.00">FileController</text>
</g>
<!-- \\AppBundle\\Controller\\FileController&#45;&gt;\\Symfony\\Bundle\\FrameworkBundle\\Controller\\Controller -->
<g id="edge8" class="edge"><title>\\AppBundle\\Controller\\FileController&#45;&gt;\\Symfony\\Bundle\\FrameworkBundle\\Controller\\Controller</title>
<path fill="none" stroke="black" d="M669.032,-594.662C624.627,-591.954 558.985,-587.949 494.274,-584.002"/>
<polygon fill="none" stroke="black" points="494.095,-580.485 483.9,-583.369 493.668,-587.472 494.095,-580.485"/>
</g>
<!-- \\AppBundle\\Controller\\AdminController -->
<g id="node31" class="node"><title>\\AppBundle\\Controller\\AdminController</title>
<polygon fill="none" stroke="black" points="783.75,-562 665.75,-562 665.75,-526 783.75,-526 783.75,-562"/>
<text text-anchor="middle" x="724.75" y="-541.2" font-family="Courier,monospace" font-size="11.00">AdminController</text>
</g>
<!-- \\AppBundle\\Controller\\AdminController&#45;&gt;\\Symfony\\Bundle\\FrameworkBundle\\Controller\\Controller -->
<g id="edge10" class="edge"><title>\\AppBundle\\Controller\\AdminController&#45;&gt;\\Symfony\\Bundle\\FrameworkBundle\\Controller\\Controller</title>
<path fill="none" stroke="black" d="M665.43,-547.558C621.087,-550.262 557.154,-554.162 494.123,-558.007"/>
<polygon fill="none" stroke="black" points="493.786,-554.521 484.017,-558.624 494.212,-561.508 493.786,-554.521"/>
</g>
<!-- \\AppBundle\\Controller\\TestsController -->
<g id="node32" class="node"><title>\\AppBundle\\Controller\\TestsController</title>
<polygon fill="none" stroke="black" points="783.75,-508 665.75,-508 665.75,-472 783.75,-472 783.75,-508"/>
<text text-anchor="middle" x="724.75" y="-487.2" font-family="Courier,monospace" font-size="11.00">TestsController</text>
</g>
<!-- \\AppBundle\\Controller\\TestsController&#45;&gt;\\Symfony\\Bundle\\FrameworkBundle\\Controller\\Controller -->
<g id="edge16" class="edge"><title>\\AppBundle\\Controller\\TestsController&#45;&gt;\\Symfony\\Bundle\\FrameworkBundle\\Controller\\Controller</title>
<path fill="none" stroke="black" d="M665.43,-500.673C593.888,-513.765 471.357,-536.188 383.884,-552.195"/>
<polygon fill="none" stroke="black" points="383.138,-548.774 373.931,-554.017 384.398,-555.659 383.138,-548.774"/>
</g>
<!-- \\AppBundle\\Controller\\UserController -->
<g id="node33" class="node"><title>\\AppBundle\\Controller\\UserController</title>
<polygon fill="none" stroke="black" points="780.25,-454 669.25,-454 669.25,-418 780.25,-418 780.25,-454"/>
<text text-anchor="middle" x="724.75" y="-433.2" font-family="Courier,monospace" font-size="11.00">UserController</text>
</g>
<!-- \\AppBundle\\Controller\\UserController&#45;&gt;\\Symfony\\Bundle\\FrameworkBundle\\Controller\\Controller -->
<g id="edge20" class="edge"><title>\\AppBundle\\Controller\\UserController&#45;&gt;\\Symfony\\Bundle\\FrameworkBundle\\Controller\\Controller</title>
<path fill="none" stroke="black" d="M669.145,-447.713C649.814,-452.136 627.974,-457.451 608.25,-463 513.376,-489.693 405.096,-526.772 339.981,-549.806"/>
<polygon fill="none" stroke="black" points="338.557,-546.597 330.302,-553.239 340.897,-553.194 338.557,-546.597"/>
</g>
<!-- \\AppBundle\\Controller\\HotSpotController -->
<g id="node34" class="node"><title>\\AppBundle\\Controller\\HotSpotController</title>
<polygon fill="none" stroke="black" points="790.25,-400 659.25,-400 659.25,-364 790.25,-364 790.25,-400"/>
<text text-anchor="middle" x="724.75" y="-379.2" font-family="Courier,monospace" font-size="11.00">HotSpotController</text>
</g>
<!-- \\AppBundle\\Controller\\HotSpotController&#45;&gt;\\Symfony\\Bundle\\FrameworkBundle\\Controller\\Controller -->
<g id="edge21" class="edge"><title>\\AppBundle\\Controller\\HotSpotController&#45;&gt;\\Symfony\\Bundle\\FrameworkBundle\\Controller\\Controller</title>
<path fill="none" stroke="black" d="M659.142,-394.341C642.348,-398.296 624.434,-403.189 608.25,-409 499.888,-447.909 380.58,-513.18 320.435,-547.802"/>
<polygon fill="none" stroke="black" points="318.553,-544.847 311.65,-552.883 322.058,-550.906 318.553,-544.847"/>
</g>
<!-- \\AppBundle\\EventListener\\AnimalImageUploadListener -->
<g id="node35" class="node"><title>\\AppBundle\\EventListener\\AnimalImageUploadListener</title>
<polygon fill="none" stroke="black" points="817.25,-320 632.25,-320 632.25,-284 817.25,-284 817.25,-320"/>
<text text-anchor="middle" x="724.75" y="-299.2" font-family="Courier,monospace" font-size="11.00">AnimalImageUploadListener</text>
</g>
<!-- \\AppBundle\\AppBundle -->
<g id="node36" class="node"><title>\\AppBundle\\AppBundle</title>
<polygon fill="none" stroke="black" points="763.25,-266 686.25,-266 686.25,-230 763.25,-230 763.25,-266"/>
<text text-anchor="middle" x="724.75" y="-245.2" font-family="Courier,monospace" font-size="11.00">AppBundle</text>
</g>
<!-- \\Symfony\\Component\\HttpKernel\\Bundle\\Bundle -->
<g id="node41" class="node"><title>\\Symfony\\Component\\HttpKernel\\Bundle\\Bundle</title>
<ellipse fill="none" stroke="black" cx="280.125" cy="-248" rx="236.658" ry="18"/>
<text text-anchor="middle" x="280.125" y="-244.3" font-family="Times,serif" font-size="14.00" fill="gray">\Symfony\Component\HttpKernel\Bundle\Bundle</text>
</g>
<!-- \\AppBundle\\AppBundle&#45;&gt;\\Symfony\\Component\\HttpKernel\\Bundle\\Bundle -->
<g id="edge5" class="edge"><title>\\AppBundle\\AppBundle&#45;&gt;\\Symfony\\Component\\HttpKernel\\Bundle\\Bundle</title>
<path fill="none" stroke="black" d="M686.012,-248C649.002,-248 589.181,-248 526.748,-248"/>
<polygon fill="none" stroke="black" points="526.708,-244.5 516.708,-248 526.708,-251.5 526.708,-244.5"/>
</g>
<!-- \\AppBundle\\FileUploader -->
<g id="node37" class="node"><title>\\AppBundle\\FileUploader</title>
<polygon fill="none" stroke="black" points="773.75,-212 675.75,-212 675.75,-176 773.75,-176 773.75,-212"/>
<text text-anchor="middle" x="724.75" y="-191.2" font-family="Courier,monospace" font-size="11.00">FileUploader</text>
</g>
<!-- \\Doctrine\\Common\\Collections\\ArrayCollection -->
<g id="node38" class="node"><title>\\Doctrine\\Common\\Collections\\ArrayCollection</title>
<polygon fill="none" stroke="black" points="783.75,-76 665.75,-76 665.75,-40 783.75,-40 783.75,-76"/>
<text text-anchor="middle" x="724.75" y="-55.2" font-family="Courier,monospace" font-size="11.00">ArrayCollection</text>
</g>
<!-- \\Doctrine\\Common\\Collections\\Collection -->
<g id="node44" class="node"><title>\\Doctrine\\Common\\Collections\\Collection</title>
<ellipse fill="none" stroke="black" cx="280.125" cy="-85" rx="204.164" ry="18"/>
<text text-anchor="middle" x="280.125" y="-81.3" font-family="Times,serif" font-size="14.00" fill="gray">\Doctrine\Common\Collections\Collection</text>
</g>
<!-- \\Doctrine\\Common\\Collections\\ArrayCollection&#45;&gt;\\Doctrine\\Common\\Collections\\Collection -->
<g id="edge13" class="edge"><title>\\Doctrine\\Common\\Collections\\ArrayCollection&#45;&gt;\\Doctrine\\Common\\Collections\\Collection</title>
<path fill="none" stroke="black" stroke-dasharray="1,5" d="M665.43,-61.5575C612.742,-64.7715 532.397,-69.6725 458.768,-74.1638"/>
<polygon fill="none" stroke="black" points="458.195,-70.6922 448.427,-74.7946 458.622,-77.6792 458.195,-70.6922"/>
</g>
<!-- \\Doctrine\\Common\\Collections\\Selectable -->
<g id="node45" class="node"><title>\\Doctrine\\Common\\Collections\\Selectable</title>
<ellipse fill="none" stroke="black" cx="280.125" cy="-31" rx="204.964" ry="18"/>
<text text-anchor="middle" x="280.125" y="-27.3" font-family="Times,serif" font-size="14.00" fill="gray">\Doctrine\Common\Collections\Selectable</text>
</g>
<!-- \\Doctrine\\Common\\Collections\\ArrayCollection&#45;&gt;\\Doctrine\\Common\\Collections\\Selectable -->
<g id="edge14" class="edge"><title>\\Doctrine\\Common\\Collections\\ArrayCollection&#45;&gt;\\Doctrine\\Common\\Collections\\Selectable</title>
<path fill="none" stroke="black" stroke-dasharray="1,5" d="M665.43,-54.4425C612.854,-51.2353 532.739,-46.3484 459.238,-41.8648"/>
<polygon fill="none" stroke="black" points="459.109,-38.3505 448.914,-41.2351 458.683,-45.3376 459.109,-38.3505"/>
</g>
</g>
</svg>
