<?xml version="1.0" encoding="UTF-8" standalone="no"?>
<!DOCTYPE svg PUBLIC "-//W3C//DTD SVG 1.1//EN"
 "http://www.w3.org/Graphics/SVG/1.1/DTD/svg11.dtd">
<!-- Generated by graphviz version 2.38.0 (20140413.2041)
 -->
<!-- Title: G Pages: 1 -->
<svg width="830pt" height="1930pt"
 viewBox="0.00 0.00 830.25 1930.00" xmlns="http://www.w3.org/2000/svg" xmlns:xlink="http://www.w3.org/1999/xlink">
<g id="graph0" class="graph" transform="scale(1 1) rotate(0) translate(4 1926)">
<title>G</title>
<polygon fill="white" stroke="none" points="-4,4 -4,-1926 826.25,-1926 826.25,4 -4,4"/>
<g id="clust1" class="cluster"><title>cluster_Global</title>
<path fill="none" stroke="gray" d="M620.25,-8C620.25,-8 802.25,-8 802.25,-8 808.25,-8 814.25,-14 814.25,-20 814.25,-20 814.25,-1902 814.25,-1902 814.25,-1908 808.25,-1914 802.25,-1914 802.25,-1914 620.25,-1914 620.25,-1914 614.25,-1914 608.25,-1908 608.25,-1902 608.25,-1902 608.25,-20 608.25,-20 608.25,-14 614.25,-8 620.25,-8"/>
<text text-anchor="middle" x="711.25" y="-1901.2" font-family="Times,serif" font-size="11.00" fill="gray">Global</text>
</g>
<g id="clust2" class="cluster"><title>cluster_\AppBundle</title>
<path fill="none" stroke="gray" d="M628.25,-168C628.25,-168 794.25,-168 794.25,-168 800.25,-168 806.25,-174 806.25,-180 806.25,-180 806.25,-1874 806.25,-1874 806.25,-1880 800.25,-1886 794.25,-1886 794.25,-1886 628.25,-1886 628.25,-1886 622.25,-1886 616.25,-1880 616.25,-1874 616.25,-1874 616.25,-180 616.25,-180 616.25,-174 622.25,-168 628.25,-168"/>
<text text-anchor="middle" x="711.25" y="-1873.2" font-family="Times,serif" font-size="11.00" fill="gray">AppBundle</text>
</g>
<g id="clust3" class="cluster"><title>cluster_\AppBundle\Form</title>
<path fill="none" stroke="gray" d="M636.25,-1246C636.25,-1246 786.25,-1246 786.25,-1246 792.25,-1246 798.25,-1252 798.25,-1258 798.25,-1258 798.25,-1846 798.25,-1846 798.25,-1852 792.25,-1858 786.25,-1858 786.25,-1858 636.25,-1858 636.25,-1858 630.25,-1858 624.25,-1852 624.25,-1846 624.25,-1846 624.25,-1258 624.25,-1258 624.25,-1252 630.25,-1246 636.25,-1246"/>
<text text-anchor="middle" x="711.25" y="-1845.2" font-family="Times,serif" font-size="11.00" fill="gray">Form</text>
</g>
<g id="clust4" class="cluster"><title>cluster_\AppBundle\Controller</title>
<path fill="none" stroke="gray" d="M636.25,-734C636.25,-734 786.25,-734 786.25,-734 792.25,-734 798.25,-740 798.25,-746 798.25,-746 798.25,-1226 798.25,-1226 798.25,-1232 792.25,-1238 786.25,-1238 786.25,-1238 636.25,-1238 636.25,-1238 630.25,-1238 624.25,-1232 624.25,-1226 624.25,-1226 624.25,-746 624.25,-746 624.25,-740 630.25,-734 636.25,-734"/>
<text text-anchor="middle" x="711.25" y="-1225.2" font-family="Times,serif" font-size="11.00" fill="gray">Controller</text>
</g>
<g id="clust5" class="cluster"><title>cluster_\AppBundle\Entity</title>
<path fill="none" stroke="gray" d="M649.75,-222C649.75,-222 772.75,-222 772.75,-222 778.75,-222 784.75,-228 784.75,-234 784.75,-234 784.75,-714 784.75,-714 784.75,-720 778.75,-726 772.75,-726 772.75,-726 649.75,-726 649.75,-726 643.75,-726 637.75,-720 637.75,-714 637.75,-714 637.75,-234 637.75,-234 637.75,-228 643.75,-222 649.75,-222"/>
<text text-anchor="middle" x="711.25" y="-713.2" font-family="Times,serif" font-size="11.00" fill="gray">Entity</text>
</g>
<g id="clust6" class="cluster"><title>cluster_\Doctrine</title>
<path fill="none" stroke="gray" d="M640.25,-16C640.25,-16 782.25,-16 782.25,-16 788.25,-16 794.25,-22 794.25,-28 794.25,-28 794.25,-148 794.25,-148 794.25,-154 788.25,-160 782.25,-160 782.25,-160 640.25,-160 640.25,-160 634.25,-160 628.25,-154 628.25,-148 628.25,-148 628.25,-28 628.25,-28 628.25,-22 634.25,-16 640.25,-16"/>
<text text-anchor="middle" x="711.25" y="-147.2" font-family="Times,serif" font-size="11.00" fill="gray">Doctrine</text>
</g>
<g id="clust7" class="cluster"><title>cluster_\Doctrine\Common</title>
<path fill="none" stroke="gray" d="M648.25,-24C648.25,-24 774.25,-24 774.25,-24 780.25,-24 786.25,-30 786.25,-36 786.25,-36 786.25,-120 786.25,-120 786.25,-126 780.25,-132 774.25,-132 774.25,-132 648.25,-132 648.25,-132 642.25,-132 636.25,-126 636.25,-120 636.25,-120 636.25,-36 636.25,-36 636.25,-30 642.25,-24 648.25,-24"/>
<text text-anchor="middle" x="711.25" y="-119.2" font-family="Times,serif" font-size="11.00" fill="gray">Common</text>
</g>
<g id="clust8" class="cluster"><title>cluster_\Doctrine\Common\Collections</title>
<path fill="none" stroke="gray" d="M656.25,-32C656.25,-32 766.25,-32 766.25,-32 772.25,-32 778.25,-38 778.25,-44 778.25,-44 778.25,-92 778.25,-92 778.25,-98 772.25,-104 766.25,-104 766.25,-104 656.25,-104 656.25,-104 650.25,-104 644.25,-98 644.25,-92 644.25,-92 644.25,-44 644.25,-44 644.25,-38 650.25,-32 656.25,-32"/>
<text text-anchor="middle" x="711.25" y="-91.2" font-family="Times,serif" font-size="11.00" fill="gray">Collections</text>
</g>
<!-- \\AppBundle\\Form\\MedicationResultsType -->
<g id="node1" class="node"><title>\\AppBundle\\Form\\MedicationResultsType</title>
<polygon fill="none" stroke="black" points="790.25,-1830 632.25,-1830 632.25,-1794 790.25,-1794 790.25,-1830"/>
<text text-anchor="middle" x="711.25" y="-1809.2" font-family="Courier,monospace" font-size="11.00">MedicationResultsType</text>
</g>
<!-- \\Symfony\\Component\\Form\\AbstractType -->
<g id="node32" class="node"><title>\\Symfony\\Component\\Form\\AbstractType</title>
<ellipse fill="none" stroke="black" cx="280.125" cy="-1542" rx="203.364" ry="18"/>
<text text-anchor="middle" x="280.125" y="-1538.3" font-family="Times,serif" font-size="14.00" fill="gray">\Symfony\Component\Form\AbstractType</text>
</g>
<!-- \\AppBundle\\Form\\MedicationResultsType&#45;&gt;\\Symfony\\Component\\Form\\AbstractType -->
<g id="edge1" class="edge"><title>\\AppBundle\\Form\\MedicationResultsType&#45;&gt;\\Symfony\\Component\\Form\\AbstractType</title>
<path fill="none" stroke="black" d="M632.003,-1794.59C623.822,-1791.8 615.76,-1788.62 608.25,-1785 484.267,-1725.29 359.835,-1616.03 307.215,-1566.99"/>
<polygon fill="none" stroke="black" points="309.377,-1564.21 299.689,-1559.92 304.587,-1569.32 309.377,-1564.21"/>
</g>
<!-- \\AppBundle\\Form\\CaseType -->
<g id="node2" class="node"><title>\\AppBundle\\Form\\CaseType</title>
<polygon fill="none" stroke="black" points="746.75,-1776 675.75,-1776 675.75,-1740 746.75,-1740 746.75,-1776"/>
<text text-anchor="middle" x="711.25" y="-1755.2" font-family="Courier,monospace" font-size="11.00">CaseType</text>
</g>
<!-- \\AppBundle\\Form\\CaseType&#45;&gt;\\Symfony\\Component\\Form\\AbstractType -->
<g id="edge9" class="edge"><title>\\AppBundle\\Form\\CaseType&#45;&gt;\\Symfony\\Component\\Form\\AbstractType</title>
<path fill="none" stroke="black" d="M675.506,-1751.21C655.425,-1746.69 629.925,-1739.94 608.25,-1731 494.927,-1684.24 372.706,-1605.01 314.986,-1565.65"/>
<polygon fill="none" stroke="black" points="316.844,-1562.68 306.617,-1559.92 312.886,-1568.46 316.844,-1562.68"/>
</g>
<!-- \\AppBundle\\Form\\MedicationsType -->
<g id="node3" class="node"><title>\\AppBundle\\Form\\MedicationsType</title>
<polygon fill="none" stroke="black" points="770.25,-1722 652.25,-1722 652.25,-1686 770.25,-1686 770.25,-1722"/>
<text text-anchor="middle" x="711.25" y="-1701.2" font-family="Courier,monospace" font-size="11.00">MedicationsType</text>
</g>
<!-- \\AppBundle\\Form\\MedicationsType&#45;&gt;\\Symfony\\Component\\Form\\AbstractType -->
<g id="edge11" class="edge"><title>\\AppBundle\\Form\\MedicationsType&#45;&gt;\\Symfony\\Component\\Form\\AbstractType</title>
<path fill="none" stroke="black" d="M652.134,-1690.04C637.685,-1686.18 622.311,-1681.74 608.25,-1677 506.632,-1642.75 391.516,-1592.45 328.546,-1563.9"/>
<polygon fill="none" stroke="black" points="329.821,-1560.64 319.269,-1559.69 326.923,-1567.01 329.821,-1560.64"/>
</g>
<!-- \\AppBundle\\Form\\AdminUserType -->
<g id="node4" class="node"><title>\\AppBundle\\Form\\AdminUserType</title>
<polygon fill="none" stroke="black" points="763.25,-1668 659.25,-1668 659.25,-1632 763.25,-1632 763.25,-1668"/>
<text text-anchor="middle" x="711.25" y="-1647.2" font-family="Courier,monospace" font-size="11.00">AdminUserType</text>
</g>
<!-- \\AppBundle\\Form\\AdminUserType&#45;&gt;\\Symfony\\Component\\Form\\AbstractType -->
<g id="edge15" class="edge"><title>\\AppBundle\\Form\\AdminUserType&#45;&gt;\\Symfony\\Component\\Form\\AbstractType</title>
<path fill="none" stroke="black" d="M658.914,-1637.08C584.368,-1618.32 445.581,-1583.39 358.57,-1561.49"/>
<polygon fill="none" stroke="black" points="359.3,-1558.07 348.748,-1559.02 357.591,-1564.85 359.3,-1558.07"/>
</g>
<!-- \\AppBundle\\Form\\TestResultsType -->
<g id="node5" class="node"><title>\\AppBundle\\Form\\TestResultsType</title>
<polygon fill="none" stroke="black" points="770.25,-1614 652.25,-1614 652.25,-1578 770.25,-1578 770.25,-1614"/>
<text text-anchor="middle" x="711.25" y="-1593.2" font-family="Courier,monospace" font-size="11.00">TestResultsType</text>
</g>
<!-- \\AppBundle\\Form\\TestResultsType&#45;&gt;\\Symfony\\Component\\Form\\AbstractType -->
<g id="edge17" class="edge"><title>\\AppBundle\\Form\\TestResultsType&#45;&gt;\\Symfony\\Component\\Form\\AbstractType</title>
<path fill="none" stroke="black" d="M651.93,-1588.66C589.627,-1580.82 488.938,-1568.15 408.195,-1557.99"/>
<polygon fill="none" stroke="black" points="408.307,-1554.48 397.949,-1556.7 407.433,-1561.42 408.307,-1554.48"/>
</g>
<!-- \\AppBundle\\Form\\AdminType -->
<g id="node6" class="node"><title>\\AppBundle\\Form\\AdminType</title>
<polygon fill="none" stroke="black" points="749.75,-1560 672.75,-1560 672.75,-1524 749.75,-1524 749.75,-1560"/>
<text text-anchor="middle" x="711.25" y="-1539.2" font-family="Courier,monospace" font-size="11.00">AdminType</text>
</g>
<!-- \\AppBundle\\Form\\AdminType&#45;&gt;\\Symfony\\Component\\Form\\AbstractType -->
<g id="edge18" class="edge"><title>\\AppBundle\\Form\\AdminType&#45;&gt;\\Symfony\\Component\\Form\\AbstractType</title>
<path fill="none" stroke="black" d="M672.544,-1542C631.511,-1542 562.532,-1542 493.81,-1542"/>
<polygon fill="none" stroke="black" points="493.676,-1538.5 483.676,-1542 493.676,-1545.5 493.676,-1538.5"/>
</g>
<!-- \\AppBundle\\Form\\TestsType -->
<g id="node7" class="node"><title>\\AppBundle\\Form\\TestsType</title>
<polygon fill="none" stroke="black" points="749.75,-1506 672.75,-1506 672.75,-1470 749.75,-1470 749.75,-1506"/>
<text text-anchor="middle" x="711.25" y="-1485.2" font-family="Courier,monospace" font-size="11.00">TestsType</text>
</g>
<!-- \\AppBundle\\Form\\TestsType&#45;&gt;\\Symfony\\Component\\Form\\AbstractType -->
<g id="edge19" class="edge"><title>\\AppBundle\\Form\\TestsType&#45;&gt;\\Symfony\\Component\\Form\\AbstractType</title>
<path fill="none" stroke="black" d="M672.544,-1492.74C613.997,-1500.11 498.556,-1514.64 408.146,-1526.02"/>
<polygon fill="none" stroke="black" points="407.572,-1522.56 398.088,-1527.28 408.446,-1529.51 407.572,-1522.56"/>
</g>
<!-- \\AppBundle\\Form\\DayType -->
<g id="node8" class="node"><title>\\AppBundle\\Form\\DayType</title>
<polygon fill="none" stroke="black" points="743.25,-1452 679.25,-1452 679.25,-1416 743.25,-1416 743.25,-1452"/>
<text text-anchor="middle" x="711.25" y="-1431.2" font-family="Courier,monospace" font-size="11.00">DayType</text>
</g>
<!-- \\AppBundle\\Form\\DayType&#45;&gt;\\Symfony\\Component\\Form\\AbstractType -->
<g id="edge22" class="edge"><title>\\AppBundle\\Form\\DayType&#45;&gt;\\Symfony\\Component\\Form\\AbstractType</title>
<path fill="none" stroke="black" d="M679.043,-1441.85C612.356,-1458.64 454.266,-1498.42 358.638,-1522.49"/>
<polygon fill="none" stroke="black" points="357.571,-1519.15 348.727,-1524.99 359.279,-1525.94 357.571,-1519.15"/>
</g>
<!-- \\AppBundle\\Form\\HotspotType -->
<g id="node9" class="node"><title>\\AppBundle\\Form\\HotspotType</title>
<polygon fill="none" stroke="black" points="756.75,-1398 665.75,-1398 665.75,-1362 756.75,-1362 756.75,-1398"/>
<text text-anchor="middle" x="711.25" y="-1377.2" font-family="Courier,monospace" font-size="11.00">HotspotType</text>
</g>
<!-- \\AppBundle\\Form\\HotspotType&#45;&gt;\\Symfony\\Component\\Form\\AbstractType -->
<g id="edge23" class="edge"><title>\\AppBundle\\Form\\HotspotType&#45;&gt;\\Symfony\\Component\\Form\\AbstractType</title>
<path fill="none" stroke="black" d="M665.688,-1390.43C647.691,-1395 626.824,-1400.74 608.25,-1407 506.632,-1441.25 391.516,-1491.55 328.546,-1520.1"/>
<polygon fill="none" stroke="black" points="326.923,-1516.99 319.269,-1524.31 329.821,-1523.36 326.923,-1516.99"/>
</g>
<!-- \\AppBundle\\Form\\DefaultType -->
<g id="node10" class="node"><title>\\AppBundle\\Form\\DefaultType</title>
<polygon fill="none" stroke="black" points="756.75,-1344 665.75,-1344 665.75,-1308 756.75,-1308 756.75,-1344"/>
<text text-anchor="middle" x="711.25" y="-1323.2" font-family="Courier,monospace" font-size="11.00">DefaultType</text>
</g>
<!-- \\AppBundle\\Form\\DefaultType&#45;&gt;\\Symfony\\Component\\Form\\AbstractType -->
<g id="edge24" class="edge"><title>\\AppBundle\\Form\\DefaultType&#45;&gt;\\Symfony\\Component\\Form\\AbstractType</title>
<path fill="none" stroke="black" d="M665.732,-1335.07C647.55,-1339.47 626.538,-1345.45 608.25,-1353 494.927,-1399.76 372.706,-1478.99 314.986,-1518.35"/>
<polygon fill="none" stroke="black" points="312.886,-1515.54 306.617,-1524.08 316.844,-1521.32 312.886,-1515.54"/>
</g>
<!-- \\AppBundle\\Form\\UserType -->
<g id="node11" class="node"><title>\\AppBundle\\Form\\UserType</title>
<polygon fill="none" stroke="black" points="746.75,-1290 675.75,-1290 675.75,-1254 746.75,-1254 746.75,-1290"/>
<text text-anchor="middle" x="711.25" y="-1269.2" font-family="Courier,monospace" font-size="11.00">UserType</text>
</g>
<!-- \\AppBundle\\Form\\UserType&#45;&gt;\\Symfony\\Component\\Form\\AbstractType -->
<g id="edge25" class="edge"><title>\\AppBundle\\Form\\UserType&#45;&gt;\\Symfony\\Component\\Form\\AbstractType</title>
<path fill="none" stroke="black" d="M675.567,-1277.77C655.274,-1281.97 629.54,-1288.75 608.25,-1299 484.267,-1358.71 359.835,-1467.97 307.215,-1517.01"/>
<polygon fill="none" stroke="black" points="304.587,-1514.68 299.689,-1524.08 309.377,-1519.79 304.587,-1514.68"/>
</g>
<!-- \\AppBundle\\Controller\\DefaultController -->
<g id="node12" class="node"><title>\\AppBundle\\Controller\\DefaultController</title>
<polygon fill="none" stroke="black" points="776.75,-1210 645.75,-1210 645.75,-1174 776.75,-1174 776.75,-1210"/>
<text text-anchor="middle" x="711.25" y="-1189.2" font-family="Courier,monospace" font-size="11.00">DefaultController</text>
</g>
<!-- \\Symfony\\Bundle\\FrameworkBundle\\Controller\\Controller -->
<g id="node33" class="node"><title>\\Symfony\\Bundle\\FrameworkBundle\\Controller\\Controller</title>
<ellipse fill="none" stroke="black" cx="280.125" cy="-976" rx="280.25" ry="18"/>
<text text-anchor="middle" x="280.125" y="-972.3" font-family="Times,serif" font-size="14.00" fill="gray">\Symfony\Bundle\FrameworkBundle\Controller\Controller</text>
</g>
<!-- \\AppBundle\\Controller\\DefaultController&#45;&gt;\\Symfony\\Bundle\\FrameworkBundle\\Controller\\Controller -->
<g id="edge2" class="edge"><title>\\AppBundle\\Controller\\DefaultController&#45;&gt;\\Symfony\\Bundle\\FrameworkBundle\\Controller\\Controller</title>
<path fill="none" stroke="black" d="M645.731,-1177.7C633.101,-1174.13 620.104,-1169.89 608.25,-1165 495.215,-1118.36 373.328,-1039.42 315.428,-999.954"/>
<polygon fill="none" stroke="black" points="317.255,-996.963 307.027,-994.199 313.298,-1002.74 317.255,-996.963"/>
</g>
<!-- \\AppBundle\\Controller\\MedicationsController -->
<g id="node13" class="node"><title>\\AppBundle\\Controller\\MedicationsController</title>
<polygon fill="none" stroke="black" points="790.25,-1156 632.25,-1156 632.25,-1120 790.25,-1120 790.25,-1156"/>
<text text-anchor="middle" x="711.25" y="-1135.2" font-family="Courier,monospace" font-size="11.00">MedicationsController</text>
</g>
<!-- \\AppBundle\\Controller\\MedicationsController&#45;&gt;\\Symfony\\Bundle\\FrameworkBundle\\Controller\\Controller -->
<g id="edge3" class="edge"><title>\\AppBundle\\Controller\\MedicationsController&#45;&gt;\\Symfony\\Bundle\\FrameworkBundle\\Controller\\Controller</title>
<path fill="none" stroke="black" d="M637.46,-1120C627.582,-1117.19 617.624,-1114.16 608.25,-1111 506.909,-1076.84 392.144,-1026.72 329.061,-998.139"/>
<polygon fill="none" stroke="black" points="330.316,-994.864 319.764,-993.912 327.419,-1001.24 330.316,-994.864"/>
</g>
<!-- \\AppBundle\\Controller\\DayController -->
<g id="node14" class="node"><title>\\AppBundle\\Controller\\DayController</title>
<polygon fill="none" stroke="black" points="763.25,-1102 659.25,-1102 659.25,-1066 763.25,-1066 763.25,-1102"/>
<text text-anchor="middle" x="711.25" y="-1081.2" font-family="Courier,monospace" font-size="11.00">DayController</text>
</g>
<!-- \\AppBundle\\Controller\\DayController&#45;&gt;\\Symfony\\Bundle\\FrameworkBundle\\Controller\\Controller -->
<g id="edge4" class="edge"><title>\\AppBundle\\Controller\\DayController&#45;&gt;\\Symfony\\Bundle\\FrameworkBundle\\Controller\\Controller</title>
<path fill="none" stroke="black" d="M658.914,-1071.08C584.904,-1052.45 447.572,-1017.89 360.454,-995.965"/>
<polygon fill="none" stroke="black" points="361.163,-992.535 350.611,-993.488 359.455,-999.323 361.163,-992.535"/>
</g>
<!-- \\AppBundle\\Controller\\RegisterController -->
<g id="node15" class="node"><title>\\AppBundle\\Controller\\RegisterController</title>
<polygon fill="none" stroke="black" points="780.25,-1048 642.25,-1048 642.25,-1012 780.25,-1012 780.25,-1048"/>
<text text-anchor="middle" x="711.25" y="-1027.2" font-family="Courier,monospace" font-size="11.00">RegisterController</text>
</g>
<!-- \\AppBundle\\Controller\\RegisterController&#45;&gt;\\Symfony\\Bundle\\FrameworkBundle\\Controller\\Controller -->
<g id="edge8" class="edge"><title>\\AppBundle\\Controller\\RegisterController&#45;&gt;\\Symfony\\Bundle\\FrameworkBundle\\Controller\\Controller</title>
<path fill="none" stroke="black" d="M641.78,-1021.38C581.881,-1013.85 493.054,-1002.67 418.544,-993.292"/>
<polygon fill="none" stroke="black" points="418.958,-989.817 408.599,-992.041 418.084,-996.762 418.958,-989.817"/>
</g>
<!-- \\AppBundle\\Controller\\AdminController -->
<g id="node16" class="node"><title>\\AppBundle\\Controller\\AdminController</title>
<polygon fill="none" stroke="black" points="770.25,-994 652.25,-994 652.25,-958 770.25,-958 770.25,-994"/>
<text text-anchor="middle" x="711.25" y="-973.2" font-family="Courier,monospace" font-size="11.00">AdminController</text>
</g>
<!-- \\AppBundle\\Controller\\AdminController&#45;&gt;\\Symfony\\Bundle\\FrameworkBundle\\Controller\\Controller -->
<g id="edge10" class="edge"><title>\\AppBundle\\Controller\\AdminController&#45;&gt;\\Symfony\\Bundle\\FrameworkBundle\\Controller\\Controller</title>
<path fill="none" stroke="black" d="M651.93,-976C629.076,-976 601.058,-976 570.753,-976"/>
<polygon fill="none" stroke="black" points="570.393,-972.5 560.393,-976 570.393,-979.5 570.393,-972.5"/>
</g>
<!-- \\AppBundle\\Controller\\SecurityController -->
<g id="node17" class="node"><title>\\AppBundle\\Controller\\SecurityController</title>
<polygon fill="none" stroke="black" points="780.25,-940 642.25,-940 642.25,-904 780.25,-904 780.25,-940"/>
<text text-anchor="middle" x="711.25" y="-919.2" font-family="Courier,monospace" font-size="11.00">SecurityController</text>
</g>
<!-- \\AppBundle\\Controller\\SecurityController&#45;&gt;\\Symfony\\Bundle\\FrameworkBundle\\Controller\\Controller -->
<g id="edge12" class="edge"><title>\\AppBundle\\Controller\\SecurityController&#45;&gt;\\Symfony\\Bundle\\FrameworkBundle\\Controller\\Controller</title>
<path fill="none" stroke="black" d="M641.78,-930.616C581.881,-938.154 493.054,-949.331 418.544,-958.708"/>
<polygon fill="none" stroke="black" points="418.084,-955.238 408.599,-959.959 418.958,-962.183 418.084,-955.238"/>
</g>
<!-- \\AppBundle\\Controller\\TestsController -->
<g id="node18" class="node"><title>\\AppBundle\\Controller\\TestsController</title>
<polygon fill="none" stroke="black" points="770.25,-886 652.25,-886 652.25,-850 770.25,-850 770.25,-886"/>
<text text-anchor="middle" x="711.25" y="-865.2" font-family="Courier,monospace" font-size="11.00">TestsController</text>
</g>
<!-- \\AppBundle\\Controller\\TestsController&#45;&gt;\\Symfony\\Bundle\\FrameworkBundle\\Controller\\Controller -->
<g id="edge16" class="edge"><title>\\AppBundle\\Controller\\TestsController&#45;&gt;\\Symfony\\Bundle\\FrameworkBundle\\Controller\\Controller</title>
<path fill="none" stroke="black" d="M651.93,-882.678C576.542,-901.651 444.947,-934.77 360.499,-956.024"/>
<polygon fill="none" stroke="black" points="359.539,-952.656 350.696,-958.491 361.248,-959.444 359.539,-952.656"/>
</g>
<!-- \\AppBundle\\Controller\\UserController -->
<g id="node19" class="node"><title>\\AppBundle\\Controller\\UserController</title>
<polygon fill="none" stroke="black" points="766.75,-832 655.75,-832 655.75,-796 766.75,-796 766.75,-832"/>
<text text-anchor="middle" x="711.25" y="-811.2" font-family="Courier,monospace" font-size="11.00">UserController</text>
</g>
<!-- \\AppBundle\\Controller\\UserController&#45;&gt;\\Symfony\\Bundle\\FrameworkBundle\\Controller\\Controller -->
<g id="edge20" class="edge"><title>\\AppBundle\\Controller\\UserController&#45;&gt;\\Symfony\\Bundle\\FrameworkBundle\\Controller\\Controller</title>
<path fill="none" stroke="black" d="M655.594,-827.04C640.161,-831.107 623.439,-835.881 608.25,-841 506.909,-875.156 392.144,-925.277 329.061,-953.861"/>
<polygon fill="none" stroke="black" points="327.419,-950.763 319.764,-958.088 330.316,-957.136 327.419,-950.763"/>
</g>
<!-- \\AppBundle\\Controller\\HotSpotController -->
<g id="node20" class="node"><title>\\AppBundle\\Controller\\HotSpotController</title>
<polygon fill="none" stroke="black" points="776.75,-778 645.75,-778 645.75,-742 776.75,-742 776.75,-778"/>
<text text-anchor="middle" x="711.25" y="-757.2" font-family="Courier,monospace" font-size="11.00">HotSpotController</text>
</g>
<!-- \\AppBundle\\Controller\\HotSpotController&#45;&gt;\\Symfony\\Bundle\\FrameworkBundle\\Controller\\Controller -->
<g id="edge21" class="edge"><title>\\AppBundle\\Controller\\HotSpotController&#45;&gt;\\Symfony\\Bundle\\FrameworkBundle\\Controller\\Controller</title>
<path fill="none" stroke="black" d="M645.731,-774.302C633.101,-777.874 620.104,-782.109 608.25,-787 495.215,-833.641 373.328,-912.583 315.428,-952.046"/>
<polygon fill="none" stroke="black" points="313.298,-949.262 307.027,-957.801 317.255,-955.037 313.298,-949.262"/>
</g>
<!-- \\AppBundle\\Entity\\Test -->
<g id="node21" class="node"><title>\\AppBundle\\Entity\\Test</title>
<polygon fill="none" stroke="black" points="738.25,-698 684.25,-698 684.25,-662 738.25,-662 738.25,-698"/>
<text text-anchor="middle" x="711.25" y="-677.2" font-family="Courier,monospace" font-size="11.00">Test</text>
</g>
<!-- \\AppBundle\\Entity\\MedicationResults -->
<g id="node22" class="node"><title>\\AppBundle\\Entity\\MedicationResults</title>
<polygon fill="none" stroke="black" points="776.75,-644 645.75,-644 645.75,-608 776.75,-608 776.75,-644"/>
<text text-anchor="middle" x="711.25" y="-623.2" font-family="Courier,monospace" font-size="11.00">MedicationResults</text>
</g>
<!-- \\AppBundle\\Entity\\TestResults -->
<g id="node23" class="node"><title>\\AppBundle\\Entity\\TestResults</title>
<polygon fill="none" stroke="black" points="756.75,-590 665.75,-590 665.75,-554 756.75,-554 756.75,-590"/>
<text text-anchor="middle" x="711.25" y="-569.2" font-family="Courier,monospace" font-size="11.00">TestResults</text>
</g>
<!-- \\AppBundle\\Entity\\User -->
<g id="node24" class="node"><title>\\AppBundle\\Entity\\User</title>
<polygon fill="none" stroke="black" points="738.25,-536 684.25,-536 684.25,-500 738.25,-500 738.25,-536"/>
<text text-anchor="middle" x="711.25" y="-515.2" font-family="Courier,monospace" font-size="11.00">User</text>
</g>
<!-- \\Symfony\\Component\\Security\\Core\\User\\UserInterface -->
<g id="node35" class="node"><title>\\Symfony\\Component\\Security\\Core\\User\\UserInterface</title>
<ellipse fill="none" stroke="black" cx="280.125" cy="-545" rx="270.252" ry="18"/>
<text text-anchor="middle" x="280.125" y="-541.3" font-family="Times,serif" font-size="14.00" fill="gray">\Symfony\Component\Security\Core\User\UserInterface</text>
</g>
<!-- \\AppBundle\\Entity\\User&#45;&gt;\\Symfony\\Component\\Security\\Core\\User\\UserInterface -->
<g id="edge6" class="edge"><title>\\AppBundle\\Entity\\User&#45;&gt;\\Symfony\\Component\\Security\\Core\\User\\UserInterface</title>
<path fill="none" stroke="black" stroke-dasharray="1,5" d="M684.053,-519.648C644.346,-522.147 565.301,-527.12 487.659,-532.005"/>
<polygon fill="none" stroke="black" points="486.974,-528.541 477.213,-532.662 487.414,-535.527 486.974,-528.541"/>
</g>
<!-- \\Serializable -->
<g id="node36" class="node"><title>\\Serializable</title>
<ellipse fill="none" stroke="black" cx="280.125" cy="-491" rx="67.6881" ry="18"/>
<text text-anchor="middle" x="280.125" y="-487.3" font-family="Times,serif" font-size="14.00" fill="gray">\Serializable</text>
</g>
<!-- \\AppBundle\\Entity\\User&#45;&gt;\\Serializable -->
<g id="edge7" class="edge"><title>\\AppBundle\\Entity\\User&#45;&gt;\\Serializable</title>
<path fill="none" stroke="black" stroke-dasharray="1,5" d="M684.053,-516.352C620.079,-512.327 453.99,-501.876 356.18,-495.722"/>
<polygon fill="none" stroke="black" points="356.26,-492.221 346.06,-495.086 355.82,-499.207 356.26,-492.221"/>
</g>
<!-- \\AppBundle\\Entity\\CaseStudy -->
<g id="node25" class="node"><title>\\AppBundle\\Entity\\CaseStudy</title>
<polygon fill="none" stroke="black" points="749.75,-482 672.75,-482 672.75,-446 749.75,-446 749.75,-482"/>
<text text-anchor="middle" x="711.25" y="-461.2" font-family="Courier,monospace" font-size="11.00">CaseStudy</text>
</g>
<!-- \\AppBundle\\Entity\\Day -->
<g id="node26" class="node"><title>\\AppBundle\\Entity\\Day</title>
<polygon fill="none" stroke="black" points="738.25,-428 684.25,-428 684.25,-392 738.25,-392 738.25,-428"/>
<text text-anchor="middle" x="711.25" y="-407.2" font-family="Courier,monospace" font-size="11.00">Day</text>
</g>
<!-- \\AppBundle\\Entity\\Medication -->
<g id="node27" class="node"><title>\\AppBundle\\Entity\\Medication</title>
<polygon fill="none" stroke="black" points="753.25,-374 669.25,-374 669.25,-338 753.25,-338 753.25,-374"/>
<text text-anchor="middle" x="711.25" y="-353.2" font-family="Courier,monospace" font-size="11.00">Medication</text>
</g>
<!-- \\AppBundle\\Entity\\UserDay -->
<g id="node28" class="node"><title>\\AppBundle\\Entity\\UserDay</title>
<polygon fill="none" stroke="black" points="743.25,-320 679.25,-320 679.25,-284 743.25,-284 743.25,-320"/>
<text text-anchor="middle" x="711.25" y="-299.2" font-family="Courier,monospace" font-size="11.00">UserDay</text>
</g>
<!-- \\AppBundle\\Entity\\HotSpots -->
<g id="node29" class="node"><title>\\AppBundle\\Entity\\HotSpots</title>
<polygon fill="none" stroke="black" points="746.75,-266 675.75,-266 675.75,-230 746.75,-230 746.75,-266"/>
<text text-anchor="middle" x="711.25" y="-245.2" font-family="Courier,monospace" font-size="11.00">HotSpots</text>
</g>
<!-- \\AppBundle\\AppBundle -->
<g id="node30" class="node"><title>\\AppBundle\\AppBundle</title>
<polygon fill="none" stroke="black" points="749.75,-212 672.75,-212 672.75,-176 749.75,-176 749.75,-212"/>
<text text-anchor="middle" x="711.25" y="-191.2" font-family="Courier,monospace" font-size="11.00">AppBundle</text>
</g>
<!-- \\Symfony\\Component\\HttpKernel\\Bundle\\Bundle -->
<g id="node34" class="node"><title>\\Symfony\\Component\\HttpKernel\\Bundle\\Bundle</title>
<ellipse fill="none" stroke="black" cx="280.125" cy="-194" rx="236.658" ry="18"/>
<text text-anchor="middle" x="280.125" y="-190.3" font-family="Times,serif" font-size="14.00" fill="gray">\Symfony\Component\HttpKernel\Bundle\Bundle</text>
</g>
<!-- \\AppBundle\\AppBundle&#45;&gt;\\Symfony\\Component\\HttpKernel\\Bundle\\Bundle -->
<g id="edge5" class="edge"><title>\\AppBundle\\AppBundle&#45;&gt;\\Symfony\\Component\\HttpKernel\\Bundle\\Bundle</title>
<path fill="none" stroke="black" d="M672.544,-194C638.154,-194 584.133,-194 527.085,-194"/>
<polygon fill="none" stroke="black" points="526.78,-190.5 516.78,-194 526.78,-197.5 526.78,-190.5"/>
</g>
<!-- \\Doctrine\\Common\\Collections\\ArrayCollection -->
<g id="node31" class="node"><title>\\Doctrine\\Common\\Collections\\ArrayCollection</title>
<polygon fill="none" stroke="black" points="770.25,-76 652.25,-76 652.25,-40 770.25,-40 770.25,-76"/>
<text text-anchor="middle" x="711.25" y="-55.2" font-family="Courier,monospace" font-size="11.00">ArrayCollection</text>
</g>
<!-- \\Doctrine\\Common\\Collections\\Collection -->
<g id="node37" class="node"><title>\\Doctrine\\Common\\Collections\\Collection</title>
<ellipse fill="none" stroke="black" cx="280.125" cy="-85" rx="204.164" ry="18"/>
<text text-anchor="middle" x="280.125" y="-81.3" font-family="Times,serif" font-size="14.00" fill="gray">\Doctrine\Common\Collections\Collection</text>
</g>
<!-- \\Doctrine\\Common\\Collections\\ArrayCollection&#45;&gt;\\Doctrine\\Common\\Collections\\Collection -->
<g id="edge13" class="edge"><title>\\Doctrine\\Common\\Collections\\ArrayCollection&#45;&gt;\\Doctrine\\Common\\Collections\\Collection</title>
<path fill="none" stroke="black" stroke-dasharray="1,5" d="M651.93,-61.6694C601.693,-64.8303 526.499,-69.5614 456.928,-73.9387"/>
<polygon fill="none" stroke="black" points="456.468,-70.4606 446.708,-74.5818 456.908,-77.4468 456.468,-70.4606"/>
</g>
<!-- \\Doctrine\\Common\\Collections\\Selectable -->
<g id="node38" class="node"><title>\\Doctrine\\Common\\Collections\\Selectable</title>
<ellipse fill="none" stroke="black" cx="280.125" cy="-31" rx="204.964" ry="18"/>
<text text-anchor="middle" x="280.125" y="-27.3" font-family="Times,serif" font-size="14.00" fill="gray">\Doctrine\Common\Collections\Selectable</text>
</g>
<!-- \\Doctrine\\Common\\Collections\\ArrayCollection&#45;&gt;\\Doctrine\\Common\\Collections\\Selectable -->
<g id="edge14" class="edge"><title>\\Doctrine\\Common\\Collections\\ArrayCollection&#45;&gt;\\Doctrine\\Common\\Collections\\Selectable</title>
<path fill="none" stroke="black" stroke-dasharray="1,5" d="M651.93,-54.3306C601.803,-51.1766 526.826,-46.4592 457.382,-42.0898"/>
<polygon fill="none" stroke="black" points="457.38,-38.5829 447.179,-41.4479 456.94,-45.5691 457.38,-38.5829"/>
</g>
</g>
</svg>
