<?xml version="1.0" encoding="UTF-8" standalone="no"?>
<!DOCTYPE svg PUBLIC "-//W3C//DTD SVG 1.1//EN"
 "http://www.w3.org/Graphics/SVG/1.1/DTD/svg11.dtd">
<!-- Generated by graphviz version 2.38.0 (20140413.2041)
 -->
<!-- Title: G Pages: 1 -->
<svg width="830pt" height="1778pt"
 viewBox="0.00 0.00 830.25 1778.00" xmlns="http://www.w3.org/2000/svg" xmlns:xlink="http://www.w3.org/1999/xlink">
<g id="graph0" class="graph" transform="scale(1 1) rotate(0) translate(4 1774)">
<title>G</title>
<polygon fill="white" stroke="none" points="-4,4 -4,-1774 826.25,-1774 826.25,4 -4,4"/>
<g id="clust1" class="cluster"><title>cluster_Global</title>
<path fill="none" stroke="gray" d="M620.25,-8C620.25,-8 802.25,-8 802.25,-8 808.25,-8 814.25,-14 814.25,-20 814.25,-20 814.25,-1750 814.25,-1750 814.25,-1756 808.25,-1762 802.25,-1762 802.25,-1762 620.25,-1762 620.25,-1762 614.25,-1762 608.25,-1756 608.25,-1750 608.25,-1750 608.25,-20 608.25,-20 608.25,-14 614.25,-8 620.25,-8"/>
<text text-anchor="middle" x="711.25" y="-1749.2" font-family="Times,serif" font-size="11.00" fill="gray">Global</text>
</g>
<g id="clust2" class="cluster"><title>cluster_\AppBundle</title>
<path fill="none" stroke="gray" d="M628.25,-16C628.25,-16 794.25,-16 794.25,-16 800.25,-16 806.25,-22 806.25,-28 806.25,-28 806.25,-1722 806.25,-1722 806.25,-1728 800.25,-1734 794.25,-1734 794.25,-1734 628.25,-1734 628.25,-1734 622.25,-1734 616.25,-1728 616.25,-1722 616.25,-1722 616.25,-28 616.25,-28 616.25,-22 622.25,-16 628.25,-16"/>
<text text-anchor="middle" x="711.25" y="-1721.2" font-family="Times,serif" font-size="11.00" fill="gray">AppBundle</text>
</g>
<g id="clust3" class="cluster"><title>cluster_\AppBundle\Form</title>
<path fill="none" stroke="gray" d="M636.25,-1094C636.25,-1094 786.25,-1094 786.25,-1094 792.25,-1094 798.25,-1100 798.25,-1106 798.25,-1106 798.25,-1694 798.25,-1694 798.25,-1700 792.25,-1706 786.25,-1706 786.25,-1706 636.25,-1706 636.25,-1706 630.25,-1706 624.25,-1700 624.25,-1694 624.25,-1694 624.25,-1106 624.25,-1106 624.25,-1100 630.25,-1094 636.25,-1094"/>
<text text-anchor="middle" x="711.25" y="-1693.2" font-family="Times,serif" font-size="11.00" fill="gray">Form</text>
</g>
<g id="clust4" class="cluster"><title>cluster_\AppBundle\Entity</title>
<path fill="none" stroke="gray" d="M649.75,-582C649.75,-582 772.75,-582 772.75,-582 778.75,-582 784.75,-588 784.75,-594 784.75,-594 784.75,-1074 784.75,-1074 784.75,-1080 778.75,-1086 772.75,-1086 772.75,-1086 649.75,-1086 649.75,-1086 643.75,-1086 637.75,-1080 637.75,-1074 637.75,-1074 637.75,-594 637.75,-594 637.75,-588 643.75,-582 649.75,-582"/>
<text text-anchor="middle" x="711.25" y="-1073.2" font-family="Times,serif" font-size="11.00" fill="gray">Entity</text>
</g>
<g id="clust5" class="cluster"><title>cluster_\AppBundle\Controller</title>
<path fill="none" stroke="gray" d="M636.25,-70C636.25,-70 786.25,-70 786.25,-70 792.25,-70 798.25,-76 798.25,-82 798.25,-82 798.25,-562 798.25,-562 798.25,-568 792.25,-574 786.25,-574 786.25,-574 636.25,-574 636.25,-574 630.25,-574 624.25,-568 624.25,-562 624.25,-562 624.25,-82 624.25,-82 624.25,-76 630.25,-70 636.25,-70"/>
<text text-anchor="middle" x="711.25" y="-561.2" font-family="Times,serif" font-size="11.00" fill="gray">Controller</text>
</g>
<!-- \\AppBundle\\Form\\AdminUserType -->
<g id="node1" class="node"><title>\\AppBundle\\Form\\AdminUserType</title>
<polygon fill="none" stroke="black" points="763.25,-1678 659.25,-1678 659.25,-1642 763.25,-1642 763.25,-1678"/>
<text text-anchor="middle" x="711.25" y="-1657.2" font-family="Courier,monospace" font-size="11.00">AdminUserType</text>
</g>
<!-- \\Symfony\\Component\\Form\\AbstractType -->
<g id="node31" class="node"><title>\\Symfony\\Component\\Form\\AbstractType</title>
<ellipse fill="none" stroke="black" cx="280.125" cy="-1390" rx="203.364" ry="18"/>
<text text-anchor="middle" x="280.125" y="-1386.3" font-family="Times,serif" font-size="14.00" fill="gray">\Symfony\Component\Form\AbstractType</text>
</g>
<!-- \\AppBundle\\Form\\AdminUserType&#45;&gt;\\Symfony\\Component\\Form\\AbstractType -->
<g id="edge1" class="edge"><title>\\AppBundle\\Form\\AdminUserType&#45;&gt;\\Symfony\\Component\\Form\\AbstractType</title>
<path fill="none" stroke="black" d="M659.091,-1650.49C642.399,-1646.34 624.094,-1640.63 608.25,-1633 484.267,-1573.29 359.835,-1464.03 307.215,-1414.99"/>
<polygon fill="none" stroke="black" points="309.377,-1412.21 299.689,-1407.92 304.587,-1417.32 309.377,-1412.21"/>
</g>
<!-- \\AppBundle\\Form\\AdminType -->
<g id="node2" class="node"><title>\\AppBundle\\Form\\AdminType</title>
<polygon fill="none" stroke="black" points="749.75,-1624 672.75,-1624 672.75,-1588 749.75,-1588 749.75,-1624"/>
<text text-anchor="middle" x="711.25" y="-1603.2" font-family="Courier,monospace" font-size="11.00">AdminType</text>
</g>
<!-- \\AppBundle\\Form\\AdminType&#45;&gt;\\Symfony\\Component\\Form\\AbstractType -->
<g id="edge5" class="edge"><title>\\AppBundle\\Form\\AdminType&#45;&gt;\\Symfony\\Component\\Form\\AbstractType</title>
<path fill="none" stroke="black" d="M672.648,-1598.56C653.043,-1594.06 628.909,-1587.52 608.25,-1579 494.927,-1532.24 372.706,-1453.01 314.986,-1413.65"/>
<polygon fill="none" stroke="black" points="316.844,-1410.68 306.617,-1407.92 312.886,-1416.46 316.844,-1410.68"/>
</g>
<!-- \\AppBundle\\Form\\HotspotType -->
<g id="node3" class="node"><title>\\AppBundle\\Form\\HotspotType</title>
<polygon fill="none" stroke="black" points="756.75,-1570 665.75,-1570 665.75,-1534 756.75,-1534 756.75,-1570"/>
<text text-anchor="middle" x="711.25" y="-1549.2" font-family="Courier,monospace" font-size="11.00">HotspotType</text>
</g>
<!-- \\AppBundle\\Form\\HotspotType&#45;&gt;\\Symfony\\Component\\Form\\AbstractType -->
<g id="edge6" class="edge"><title>\\AppBundle\\Form\\HotspotType&#45;&gt;\\Symfony\\Component\\Form\\AbstractType</title>
<path fill="none" stroke="black" d="M665.688,-1541.57C647.691,-1537 626.824,-1531.26 608.25,-1525 506.632,-1490.75 391.516,-1440.45 328.546,-1411.9"/>
<polygon fill="none" stroke="black" points="329.821,-1408.64 319.269,-1407.69 326.923,-1415.01 329.821,-1408.64"/>
</g>
<!-- \\AppBundle\\Form\\DefaultType -->
<g id="node4" class="node"><title>\\AppBundle\\Form\\DefaultType</title>
<polygon fill="none" stroke="black" points="756.75,-1516 665.75,-1516 665.75,-1480 756.75,-1480 756.75,-1516"/>
<text text-anchor="middle" x="711.25" y="-1495.2" font-family="Courier,monospace" font-size="11.00">DefaultType</text>
</g>
<!-- \\AppBundle\\Form\\DefaultType&#45;&gt;\\Symfony\\Component\\Form\\AbstractType -->
<g id="edge9" class="edge"><title>\\AppBundle\\Form\\DefaultType&#45;&gt;\\Symfony\\Component\\Form\\AbstractType</title>
<path fill="none" stroke="black" d="M665.541,-1486.75C592.812,-1468.44 448.011,-1432 358.366,-1409.44"/>
<polygon fill="none" stroke="black" points="359.076,-1406.01 348.524,-1406.96 357.367,-1412.8 359.076,-1406.01"/>
</g>
<!-- \\AppBundle\\Form\\MedicationsType -->
<g id="node5" class="node"><title>\\AppBundle\\Form\\MedicationsType</title>
<polygon fill="none" stroke="black" points="770.25,-1462 652.25,-1462 652.25,-1426 770.25,-1426 770.25,-1462"/>
<text text-anchor="middle" x="711.25" y="-1441.2" font-family="Courier,monospace" font-size="11.00">MedicationsType</text>
</g>
<!-- \\AppBundle\\Form\\MedicationsType&#45;&gt;\\Symfony\\Component\\Form\\AbstractType -->
<g id="edge10" class="edge"><title>\\AppBundle\\Form\\MedicationsType&#45;&gt;\\Symfony\\Component\\Form\\AbstractType</title>
<path fill="none" stroke="black" d="M651.93,-1436.66C589.627,-1428.82 488.938,-1416.15 408.195,-1405.99"/>
<polygon fill="none" stroke="black" points="408.307,-1402.48 397.949,-1404.7 407.433,-1409.42 408.307,-1402.48"/>
</g>
<!-- \\AppBundle\\Form\\CaseType -->
<g id="node6" class="node"><title>\\AppBundle\\Form\\CaseType</title>
<polygon fill="none" stroke="black" points="746.75,-1408 675.75,-1408 675.75,-1372 746.75,-1372 746.75,-1408"/>
<text text-anchor="middle" x="711.25" y="-1387.2" font-family="Courier,monospace" font-size="11.00">CaseType</text>
</g>
<!-- \\AppBundle\\Form\\CaseType&#45;&gt;\\Symfony\\Component\\Form\\AbstractType -->
<g id="edge11" class="edge"><title>\\AppBundle\\Form\\CaseType&#45;&gt;\\Symfony\\Component\\Form\\AbstractType</title>
<path fill="none" stroke="black" d="M675.497,-1390C634.941,-1390 564.435,-1390 494.149,-1390"/>
<polygon fill="none" stroke="black" points="493.784,-1386.5 483.784,-1390 493.784,-1393.5 493.784,-1386.5"/>
</g>
<!-- \\AppBundle\\Form\\TestsType -->
<g id="node7" class="node"><title>\\AppBundle\\Form\\TestsType</title>
<polygon fill="none" stroke="black" points="749.75,-1354 672.75,-1354 672.75,-1318 749.75,-1318 749.75,-1354"/>
<text text-anchor="middle" x="711.25" y="-1333.2" font-family="Courier,monospace" font-size="11.00">TestsType</text>
</g>
<!-- \\AppBundle\\Form\\TestsType&#45;&gt;\\Symfony\\Component\\Form\\AbstractType -->
<g id="edge14" class="edge"><title>\\AppBundle\\Form\\TestsType&#45;&gt;\\Symfony\\Component\\Form\\AbstractType</title>
<path fill="none" stroke="black" d="M672.544,-1340.74C613.997,-1348.11 498.556,-1362.64 408.146,-1374.02"/>
<polygon fill="none" stroke="black" points="407.572,-1370.56 398.088,-1375.28 408.446,-1377.51 407.572,-1370.56"/>
</g>
<!-- \\AppBundle\\Form\\TestResultsType -->
<g id="node8" class="node"><title>\\AppBundle\\Form\\TestResultsType</title>
<polygon fill="none" stroke="black" points="770.25,-1300 652.25,-1300 652.25,-1264 770.25,-1264 770.25,-1300"/>
<text text-anchor="middle" x="711.25" y="-1279.2" font-family="Courier,monospace" font-size="11.00">TestResultsType</text>
</g>
<!-- \\AppBundle\\Form\\TestResultsType&#45;&gt;\\Symfony\\Component\\Form\\AbstractType -->
<g id="edge17" class="edge"><title>\\AppBundle\\Form\\TestResultsType&#45;&gt;\\Symfony\\Component\\Form\\AbstractType</title>
<path fill="none" stroke="black" d="M651.93,-1296.68C575.88,-1315.82 442.634,-1349.35 358.287,-1370.58"/>
<polygon fill="none" stroke="black" points="357.348,-1367.21 348.505,-1373.04 359.057,-1374 357.348,-1367.21"/>
</g>
<!-- \\AppBundle\\Form\\DayType -->
<g id="node9" class="node"><title>\\AppBundle\\Form\\DayType</title>
<polygon fill="none" stroke="black" points="743.25,-1246 679.25,-1246 679.25,-1210 743.25,-1210 743.25,-1246"/>
<text text-anchor="middle" x="711.25" y="-1225.2" font-family="Courier,monospace" font-size="11.00">DayType</text>
</g>
<!-- \\AppBundle\\Form\\DayType&#45;&gt;\\Symfony\\Component\\Form\\AbstractType -->
<g id="edge18" class="edge"><title>\\AppBundle\\Form\\DayType&#45;&gt;\\Symfony\\Component\\Form\\AbstractType</title>
<path fill="none" stroke="black" d="M679.136,-1235.1C658.768,-1240.03 631.685,-1247.1 608.25,-1255 506.632,-1289.25 391.516,-1339.55 328.546,-1368.1"/>
<polygon fill="none" stroke="black" points="326.923,-1364.99 319.269,-1372.31 329.821,-1371.36 326.923,-1364.99"/>
</g>
<!-- \\AppBundle\\Form\\UserType -->
<g id="node10" class="node"><title>\\AppBundle\\Form\\UserType</title>
<polygon fill="none" stroke="black" points="746.75,-1192 675.75,-1192 675.75,-1156 746.75,-1156 746.75,-1192"/>
<text text-anchor="middle" x="711.25" y="-1171.2" font-family="Courier,monospace" font-size="11.00">UserType</text>
</g>
<!-- \\AppBundle\\Form\\UserType&#45;&gt;\\Symfony\\Component\\Form\\AbstractType -->
<g id="edge22" class="edge"><title>\\AppBundle\\Form\\UserType&#45;&gt;\\Symfony\\Component\\Form\\AbstractType</title>
<path fill="none" stroke="black" d="M675.506,-1180.79C655.425,-1185.31 629.925,-1192.06 608.25,-1201 494.927,-1247.76 372.706,-1326.99 314.986,-1366.35"/>
<polygon fill="none" stroke="black" points="312.886,-1363.54 306.617,-1372.08 316.844,-1369.32 312.886,-1363.54"/>
</g>
<!-- \\AppBundle\\Form\\MedicationResultsType -->
<g id="node11" class="node"><title>\\AppBundle\\Form\\MedicationResultsType</title>
<polygon fill="none" stroke="black" points="790.25,-1138 632.25,-1138 632.25,-1102 790.25,-1102 790.25,-1138"/>
<text text-anchor="middle" x="711.25" y="-1117.2" font-family="Courier,monospace" font-size="11.00">MedicationResultsType</text>
</g>
<!-- \\AppBundle\\Form\\MedicationResultsType&#45;&gt;\\Symfony\\Component\\Form\\AbstractType -->
<g id="edge23" class="edge"><title>\\AppBundle\\Form\\MedicationResultsType&#45;&gt;\\Symfony\\Component\\Form\\AbstractType</title>
<path fill="none" stroke="black" d="M632.003,-1137.41C623.822,-1140.2 615.76,-1143.38 608.25,-1147 484.267,-1206.71 359.835,-1315.97 307.215,-1365.01"/>
<polygon fill="none" stroke="black" points="304.587,-1362.68 299.689,-1372.08 309.377,-1367.79 304.587,-1362.68"/>
</g>
<!-- \\AppBundle\\Entity\\User -->
<g id="node12" class="node"><title>\\AppBundle\\Entity\\User</title>
<polygon fill="none" stroke="black" points="738.25,-1058 684.25,-1058 684.25,-1022 738.25,-1022 738.25,-1058"/>
<text text-anchor="middle" x="711.25" y="-1037.2" font-family="Courier,monospace" font-size="11.00">User</text>
</g>
<!-- \\Symfony\\Component\\Security\\Core\\User\\UserInterface -->
<g id="node32" class="node"><title>\\Symfony\\Component\\Security\\Core\\User\\UserInterface</title>
<ellipse fill="none" stroke="black" cx="280.125" cy="-1067" rx="270.252" ry="18"/>
<text text-anchor="middle" x="280.125" y="-1063.3" font-family="Times,serif" font-size="14.00" fill="gray">\Symfony\Component\Security\Core\User\UserInterface</text>
</g>
<!-- \\AppBundle\\Entity\\User&#45;&gt;\\Symfony\\Component\\Security\\Core\\User\\UserInterface -->
<g id="edge2" class="edge"><title>\\AppBundle\\Entity\\User&#45;&gt;\\Symfony\\Component\\Security\\Core\\User\\UserInterface</title>
<path fill="none" stroke="black" stroke-dasharray="1,5" d="M684.053,-1041.65C644.346,-1044.15 565.301,-1049.12 487.659,-1054.01"/>
<polygon fill="none" stroke="black" points="486.974,-1050.54 477.213,-1054.66 487.414,-1057.53 486.974,-1050.54"/>
</g>
<!-- \\Serializable -->
<g id="node33" class="node"><title>\\Serializable</title>
<ellipse fill="none" stroke="black" cx="280.125" cy="-1013" rx="67.6881" ry="18"/>
<text text-anchor="middle" x="280.125" y="-1009.3" font-family="Times,serif" font-size="14.00" fill="gray">\Serializable</text>
</g>
<!-- \\AppBundle\\Entity\\User&#45;&gt;\\Serializable -->
<g id="edge3" class="edge"><title>\\AppBundle\\Entity\\User&#45;&gt;\\Serializable</title>
<path fill="none" stroke="black" stroke-dasharray="1,5" d="M684.053,-1038.35C620.079,-1034.33 453.99,-1023.88 356.18,-1017.72"/>
<polygon fill="none" stroke="black" points="356.26,-1014.22 346.06,-1017.09 355.82,-1021.21 356.26,-1014.22"/>
</g>
<!-- \\AppBundle\\Entity\\Test -->
<g id="node13" class="node"><title>\\AppBundle\\Entity\\Test</title>
<polygon fill="none" stroke="black" points="738.25,-1004 684.25,-1004 684.25,-968 738.25,-968 738.25,-1004"/>
<text text-anchor="middle" x="711.25" y="-983.2" font-family="Courier,monospace" font-size="11.00">Test</text>
</g>
<!-- \\AppBundle\\Entity\\TestResults -->
<g id="node14" class="node"><title>\\AppBundle\\Entity\\TestResults</title>
<polygon fill="none" stroke="black" points="756.75,-950 665.75,-950 665.75,-914 756.75,-914 756.75,-950"/>
<text text-anchor="middle" x="711.25" y="-929.2" font-family="Courier,monospace" font-size="11.00">TestResults</text>
</g>
<!-- \\AppBundle\\Entity\\UserDay -->
<g id="node15" class="node"><title>\\AppBundle\\Entity\\UserDay</title>
<polygon fill="none" stroke="black" points="743.25,-896 679.25,-896 679.25,-860 743.25,-860 743.25,-896"/>
<text text-anchor="middle" x="711.25" y="-875.2" font-family="Courier,monospace" font-size="11.00">UserDay</text>
</g>
<!-- \\AppBundle\\Entity\\Medication -->
<g id="node16" class="node"><title>\\AppBundle\\Entity\\Medication</title>
<polygon fill="none" stroke="black" points="753.25,-842 669.25,-842 669.25,-806 753.25,-806 753.25,-842"/>
<text text-anchor="middle" x="711.25" y="-821.2" font-family="Courier,monospace" font-size="11.00">Medication</text>
</g>
<!-- \\AppBundle\\Entity\\HotSpots -->
<g id="node17" class="node"><title>\\AppBundle\\Entity\\HotSpots</title>
<polygon fill="none" stroke="black" points="746.75,-788 675.75,-788 675.75,-752 746.75,-752 746.75,-788"/>
<text text-anchor="middle" x="711.25" y="-767.2" font-family="Courier,monospace" font-size="11.00">HotSpots</text>
</g>
<!-- \\AppBundle\\Entity\\Day -->
<g id="node18" class="node"><title>\\AppBundle\\Entity\\Day</title>
<polygon fill="none" stroke="black" points="738.25,-734 684.25,-734 684.25,-698 738.25,-698 738.25,-734"/>
<text text-anchor="middle" x="711.25" y="-713.2" font-family="Courier,monospace" font-size="11.00">Day</text>
</g>
<!-- \\AppBundle\\Entity\\CaseStudy -->
<g id="node19" class="node"><title>\\AppBundle\\Entity\\CaseStudy</title>
<polygon fill="none" stroke="black" points="749.75,-680 672.75,-680 672.75,-644 749.75,-644 749.75,-680"/>
<text text-anchor="middle" x="711.25" y="-659.2" font-family="Courier,monospace" font-size="11.00">CaseStudy</text>
</g>
<!-- \\AppBundle\\Entity\\MedicationResults -->
<g id="node20" class="node"><title>\\AppBundle\\Entity\\MedicationResults</title>
<polygon fill="none" stroke="black" points="776.75,-626 645.75,-626 645.75,-590 776.75,-590 776.75,-626"/>
<text text-anchor="middle" x="711.25" y="-605.2" font-family="Courier,monospace" font-size="11.00">MedicationResults</text>
</g>
<!-- \\AppBundle\\Controller\\MedicationsController -->
<g id="node21" class="node"><title>\\AppBundle\\Controller\\MedicationsController</title>
<polygon fill="none" stroke="black" points="790.25,-546 632.25,-546 632.25,-510 790.25,-510 790.25,-546"/>
<text text-anchor="middle" x="711.25" y="-525.2" font-family="Courier,monospace" font-size="11.00">MedicationsController</text>
</g>
<!-- \\Symfony\\Bundle\\FrameworkBundle\\Controller\\Controller -->
<g id="node34" class="node"><title>\\Symfony\\Bundle\\FrameworkBundle\\Controller\\Controller</title>
<ellipse fill="none" stroke="black" cx="280.125" cy="-312" rx="280.25" ry="18"/>
<text text-anchor="middle" x="280.125" y="-308.3" font-family="Times,serif" font-size="14.00" fill="gray">\Symfony\Bundle\FrameworkBundle\Controller\Controller</text>
</g>
<!-- \\AppBundle\\Controller\\MedicationsController&#45;&gt;\\Symfony\\Bundle\\FrameworkBundle\\Controller\\Controller -->
<g id="edge4" class="edge"><title>\\AppBundle\\Controller\\MedicationsController&#45;&gt;\\Symfony\\Bundle\\FrameworkBundle\\Controller\\Controller</title>
<path fill="none" stroke="black" d="M633.216,-509.962C624.683,-507.272 616.209,-504.284 608.25,-501 495.215,-454.359 373.328,-375.417 315.428,-335.954"/>
<polygon fill="none" stroke="black" points="317.255,-332.963 307.027,-330.199 313.298,-338.738 317.255,-332.963"/>
</g>
<!-- \\AppBundle\\Controller\\SecurityController -->
<g id="node22" class="node"><title>\\AppBundle\\Controller\\SecurityController</title>
<polygon fill="none" stroke="black" points="780.25,-492 642.25,-492 642.25,-456 780.25,-456 780.25,-492"/>
<text text-anchor="middle" x="711.25" y="-471.2" font-family="Courier,monospace" font-size="11.00">SecurityController</text>
</g>
<!-- \\AppBundle\\Controller\\SecurityController&#45;&gt;\\Symfony\\Bundle\\FrameworkBundle\\Controller\\Controller -->
<g id="edge7" class="edge"><title>\\AppBundle\\Controller\\SecurityController&#45;&gt;\\Symfony\\Bundle\\FrameworkBundle\\Controller\\Controller</title>
<path fill="none" stroke="black" d="M642.116,-457.31C630.731,-454.137 619.1,-450.657 608.25,-447 506.909,-412.844 392.144,-362.723 329.061,-334.139"/>
<polygon fill="none" stroke="black" points="330.316,-330.864 319.764,-329.912 327.419,-337.237 330.316,-330.864"/>
</g>
<!-- \\AppBundle\\Controller\\DefaultController -->
<g id="node23" class="node"><title>\\AppBundle\\Controller\\DefaultController</title>
<polygon fill="none" stroke="black" points="776.75,-438 645.75,-438 645.75,-402 776.75,-402 776.75,-438"/>
<text text-anchor="middle" x="711.25" y="-417.2" font-family="Courier,monospace" font-size="11.00">DefaultController</text>
</g>
<!-- \\AppBundle\\Controller\\DefaultController&#45;&gt;\\Symfony\\Bundle\\FrameworkBundle\\Controller\\Controller -->
<g id="edge8" class="edge"><title>\\AppBundle\\Controller\\DefaultController&#45;&gt;\\Symfony\\Bundle\\FrameworkBundle\\Controller\\Controller</title>
<path fill="none" stroke="black" d="M645.541,-403.714C569.268,-384.518 442.533,-352.622 360.425,-331.958"/>
<polygon fill="none" stroke="black" points="361.191,-328.541 350.639,-329.495 359.482,-335.33 361.191,-328.541"/>
</g>
<!-- \\AppBundle\\Controller\\HotSpotController -->
<g id="node24" class="node"><title>\\AppBundle\\Controller\\HotSpotController</title>
<polygon fill="none" stroke="black" points="776.75,-384 645.75,-384 645.75,-348 776.75,-348 776.75,-384"/>
<text text-anchor="middle" x="711.25" y="-363.2" font-family="Courier,monospace" font-size="11.00">HotSpotController</text>
</g>
<!-- \\AppBundle\\Controller\\HotSpotController&#45;&gt;\\Symfony\\Bundle\\FrameworkBundle\\Controller\\Controller -->
<g id="edge12" class="edge"><title>\\AppBundle\\Controller\\HotSpotController&#45;&gt;\\Symfony\\Bundle\\FrameworkBundle\\Controller\\Controller</title>
<path fill="none" stroke="black" d="M645.541,-357.857C585.712,-350.328 494.834,-338.893 418.8,-329.325"/>
<polygon fill="none" stroke="black" points="419.011,-325.824 408.653,-328.048 418.137,-332.769 419.011,-325.824"/>
</g>
<!-- \\AppBundle\\Controller\\RegisterController -->
<g id="node25" class="node"><title>\\AppBundle\\Controller\\RegisterController</title>
<polygon fill="none" stroke="black" points="780.25,-330 642.25,-330 642.25,-294 780.25,-294 780.25,-330"/>
<text text-anchor="middle" x="711.25" y="-309.2" font-family="Courier,monospace" font-size="11.00">RegisterController</text>
</g>
<!-- \\AppBundle\\Controller\\RegisterController&#45;&gt;\\Symfony\\Bundle\\FrameworkBundle\\Controller\\Controller -->
<g id="edge13" class="edge"><title>\\AppBundle\\Controller\\RegisterController&#45;&gt;\\Symfony\\Bundle\\FrameworkBundle\\Controller\\Controller</title>
<path fill="none" stroke="black" d="M641.78,-312C620.902,-312 596.511,-312 570.436,-312"/>
<polygon fill="none" stroke="black" points="570.364,-308.5 560.364,-312 570.364,-315.5 570.364,-308.5"/>
</g>
<!-- \\AppBundle\\Controller\\AdminController -->
<g id="node26" class="node"><title>\\AppBundle\\Controller\\AdminController</title>
<polygon fill="none" stroke="black" points="770.25,-276 652.25,-276 652.25,-240 770.25,-240 770.25,-276"/>
<text text-anchor="middle" x="711.25" y="-255.2" font-family="Courier,monospace" font-size="11.00">AdminController</text>
</g>
<!-- \\AppBundle\\Controller\\AdminController&#45;&gt;\\Symfony\\Bundle\\FrameworkBundle\\Controller\\Controller -->
<g id="edge16" class="edge"><title>\\AppBundle\\Controller\\AdminController&#45;&gt;\\Symfony\\Bundle\\FrameworkBundle\\Controller\\Controller</title>
<path fill="none" stroke="black" d="M651.93,-265.339C592.264,-272.847 497.393,-284.785 418.551,-294.707"/>
<polygon fill="none" stroke="black" points="418.011,-291.247 408.526,-295.968 418.885,-298.192 418.011,-291.247"/>
</g>
<!-- \\AppBundle\\Controller\\TestsController -->
<g id="node27" class="node"><title>\\AppBundle\\Controller\\TestsController</title>
<polygon fill="none" stroke="black" points="770.25,-222 652.25,-222 652.25,-186 770.25,-186 770.25,-222"/>
<text text-anchor="middle" x="711.25" y="-201.2" font-family="Courier,monospace" font-size="11.00">TestsController</text>
</g>
<!-- \\AppBundle\\Controller\\TestsController&#45;&gt;\\Symfony\\Bundle\\FrameworkBundle\\Controller\\Controller -->
<g id="edge19" class="edge"><title>\\AppBundle\\Controller\\TestsController&#45;&gt;\\Symfony\\Bundle\\FrameworkBundle\\Controller\\Controller</title>
<path fill="none" stroke="black" d="M651.93,-218.678C576.542,-237.651 444.947,-270.77 360.499,-292.024"/>
<polygon fill="none" stroke="black" points="359.539,-288.656 350.696,-294.491 361.248,-295.444 359.539,-288.656"/>
</g>
<!-- \\AppBundle\\Controller\\UserController -->
<g id="node28" class="node"><title>\\AppBundle\\Controller\\UserController</title>
<polygon fill="none" stroke="black" points="766.75,-168 655.75,-168 655.75,-132 766.75,-132 766.75,-168"/>
<text text-anchor="middle" x="711.25" y="-147.2" font-family="Courier,monospace" font-size="11.00">UserController</text>
</g>
<!-- \\AppBundle\\Controller\\UserController&#45;&gt;\\Symfony\\Bundle\\FrameworkBundle\\Controller\\Controller -->
<g id="edge20" class="edge"><title>\\AppBundle\\Controller\\UserController&#45;&gt;\\Symfony\\Bundle\\FrameworkBundle\\Controller\\Controller</title>
<path fill="none" stroke="black" d="M655.594,-163.04C640.161,-167.107 623.439,-171.881 608.25,-177 506.909,-211.156 392.144,-261.277 329.061,-289.861"/>
<polygon fill="none" stroke="black" points="327.419,-286.763 319.764,-294.088 330.316,-293.136 327.419,-286.763"/>
</g>
<!-- \\AppBundle\\Controller\\DayController -->
<g id="node29" class="node"><title>\\AppBundle\\Controller\\DayController</title>
<polygon fill="none" stroke="black" points="763.25,-114 659.25,-114 659.25,-78 763.25,-78 763.25,-114"/>
<text text-anchor="middle" x="711.25" y="-93.2" font-family="Courier,monospace" font-size="11.00">DayController</text>
</g>
<!-- \\AppBundle\\Controller\\DayController&#45;&gt;\\Symfony\\Bundle\\FrameworkBundle\\Controller\\Controller -->
<g id="edge21" class="edge"><title>\\AppBundle\\Controller\\DayController&#45;&gt;\\Symfony\\Bundle\\FrameworkBundle\\Controller\\Controller</title>
<path fill="none" stroke="black" d="M659.053,-106.729C642.531,-110.933 624.337,-116.362 608.25,-123 495.215,-169.641 373.328,-248.583 315.428,-288.046"/>
<polygon fill="none" stroke="black" points="313.298,-285.262 307.027,-293.801 317.255,-291.037 313.298,-285.262"/>
</g>
<!-- \\AppBundle\\AppBundle -->
<g id="node30" class="node"><title>\\AppBundle\\AppBundle</title>
<polygon fill="none" stroke="black" points="749.75,-60 672.75,-60 672.75,-24 749.75,-24 749.75,-60"/>
<text text-anchor="middle" x="711.25" y="-39.2" font-family="Courier,monospace" font-size="11.00">AppBundle</text>
</g>
<!-- \\Symfony\\Component\\HttpKernel\\Bundle\\Bundle -->
<g id="node35" class="node"><title>\\Symfony\\Component\\HttpKernel\\Bundle\\Bundle</title>
<ellipse fill="none" stroke="black" cx="280.125" cy="-42" rx="236.658" ry="18"/>
<text text-anchor="middle" x="280.125" y="-38.3" font-family="Times,serif" font-size="14.00" fill="gray">\Symfony\Component\HttpKernel\Bundle\Bundle</text>
</g>
<!-- \\AppBundle\\AppBundle&#45;&gt;\\Symfony\\Component\\HttpKernel\\Bundle\\Bundle -->
<g id="edge15" class="edge"><title>\\AppBundle\\AppBundle&#45;&gt;\\Symfony\\Component\\HttpKernel\\Bundle\\Bundle</title>
<path fill="none" stroke="black" d="M672.544,-42C638.154,-42 584.133,-42 527.085,-42"/>
<polygon fill="none" stroke="black" points="526.78,-38.5001 516.78,-42 526.78,-45.5001 526.78,-38.5001"/>
</g>
</g>
</svg>
