<?xml version="1.0" encoding="UTF-8" standalone="no"?>
<!DOCTYPE svg PUBLIC "-//W3C//DTD SVG 1.1//EN"
 "http://www.w3.org/Graphics/SVG/1.1/DTD/svg11.dtd">
<!-- Generated by graphviz version 2.38.0 (20140413.2041)
 -->
<!-- Title: G Pages: 1 -->
<svg width="857pt" height="2172pt"
 viewBox="0.00 0.00 857.25 2172.00" xmlns="http://www.w3.org/2000/svg" xmlns:xlink="http://www.w3.org/1999/xlink">
<g id="graph0" class="graph" transform="scale(1 1) rotate(0) translate(4 2168)">
<title>G</title>
<polygon fill="white" stroke="none" points="-4,4 -4,-2168 853.25,-2168 853.25,4 -4,4"/>
<g id="clust1" class="cluster"><title>cluster_Global</title>
<path fill="none" stroke="gray" d="M620.25,-8C620.25,-8 829.25,-8 829.25,-8 835.25,-8 841.25,-14 841.25,-20 841.25,-20 841.25,-2144 841.25,-2144 841.25,-2150 835.25,-2156 829.25,-2156 829.25,-2156 620.25,-2156 620.25,-2156 614.25,-2156 608.25,-2150 608.25,-2144 608.25,-2144 608.25,-20 608.25,-20 608.25,-14 614.25,-8 620.25,-8"/>
<text text-anchor="middle" x="724.75" y="-2143.2" font-family="Times,serif" font-size="11.00" fill="gray">Global</text>
</g>
<g id="clust2" class="cluster"><title>cluster_\AppBundle</title>
<path fill="none" stroke="gray" d="M628.25,-168C628.25,-168 821.25,-168 821.25,-168 827.25,-168 833.25,-174 833.25,-180 833.25,-180 833.25,-2116 833.25,-2116 833.25,-2122 827.25,-2128 821.25,-2128 821.25,-2128 628.25,-2128 628.25,-2128 622.25,-2128 616.25,-2122 616.25,-2116 616.25,-2116 616.25,-180 616.25,-180 616.25,-174 622.25,-168 628.25,-168"/>
<text text-anchor="middle" x="724.75" y="-2115.2" font-family="Times,serif" font-size="11.00" fill="gray">AppBundle</text>
</g>
<g id="clust3" class="cluster"><title>cluster_\AppBundle\Form</title>
<path fill="none" stroke="gray" d="M649.75,-1434C649.75,-1434 799.75,-1434 799.75,-1434 805.75,-1434 811.75,-1440 811.75,-1446 811.75,-1446 811.75,-2088 811.75,-2088 811.75,-2094 805.75,-2100 799.75,-2100 799.75,-2100 649.75,-2100 649.75,-2100 643.75,-2100 637.75,-2094 637.75,-2088 637.75,-2088 637.75,-1446 637.75,-1446 637.75,-1440 643.75,-1434 649.75,-1434"/>
<text text-anchor="middle" x="724.75" y="-2087.2" font-family="Times,serif" font-size="11.00" fill="gray">Form</text>
</g>
<g id="clust4" class="cluster"><title>cluster_\AppBundle\Entity</title>
<path fill="none" stroke="gray" d="M663.25,-760C663.25,-760 786.25,-760 786.25,-760 792.25,-760 798.25,-766 798.25,-772 798.25,-772 798.25,-1414 798.25,-1414 798.25,-1420 792.25,-1426 786.25,-1426 786.25,-1426 663.25,-1426 663.25,-1426 657.25,-1426 651.25,-1420 651.25,-1414 651.25,-1414 651.25,-772 651.25,-772 651.25,-766 657.25,-760 663.25,-760"/>
<text text-anchor="middle" x="724.75" y="-1413.2" font-family="Times,serif" font-size="11.00" fill="gray">Entity</text>
</g>
<g id="clust5" class="cluster"><title>cluster_\AppBundle\Controller</title>
<path fill="none" stroke="gray" d="M649.75,-356C649.75,-356 799.75,-356 799.75,-356 805.75,-356 811.75,-362 811.75,-368 811.75,-368 811.75,-740 811.75,-740 811.75,-746 805.75,-752 799.75,-752 799.75,-752 649.75,-752 649.75,-752 643.75,-752 637.75,-746 637.75,-740 637.75,-740 637.75,-368 637.75,-368 637.75,-362 643.75,-356 649.75,-356"/>
<text text-anchor="middle" x="724.75" y="-739.2" font-family="Times,serif" font-size="11.00" fill="gray">Controller</text>
</g>
<g id="clust6" class="cluster"><title>cluster_\AppBundle\EventListener</title>
<path fill="none" stroke="gray" d="M636.25,-276C636.25,-276 813.25,-276 813.25,-276 819.25,-276 825.25,-282 825.25,-288 825.25,-288 825.25,-336 825.25,-336 825.25,-342 819.25,-348 813.25,-348 813.25,-348 636.25,-348 636.25,-348 630.25,-348 624.25,-342 624.25,-336 624.25,-336 624.25,-288 624.25,-288 624.25,-282 630.25,-276 636.25,-276"/>
<text text-anchor="middle" x="724.75" y="-335.2" font-family="Times,serif" font-size="11.00" fill="gray">EventListener</text>
</g>
<g id="clust7" class="cluster"><title>cluster_\Doctrine</title>
<path fill="none" stroke="gray" d="M653.75,-16C653.75,-16 795.75,-16 795.75,-16 801.75,-16 807.75,-22 807.75,-28 807.75,-28 807.75,-148 807.75,-148 807.75,-154 801.75,-160 795.75,-160 795.75,-160 653.75,-160 653.75,-160 647.75,-160 641.75,-154 641.75,-148 641.75,-148 641.75,-28 641.75,-28 641.75,-22 647.75,-16 653.75,-16"/>
<text text-anchor="middle" x="724.75" y="-147.2" font-family="Times,serif" font-size="11.00" fill="gray">Doctrine</text>
</g>
<g id="clust8" class="cluster"><title>cluster_\Doctrine\Common</title>
<path fill="none" stroke="gray" d="M661.75,-24C661.75,-24 787.75,-24 787.75,-24 793.75,-24 799.75,-30 799.75,-36 799.75,-36 799.75,-120 799.75,-120 799.75,-126 793.75,-132 787.75,-132 787.75,-132 661.75,-132 661.75,-132 655.75,-132 649.75,-126 649.75,-120 649.75,-120 649.75,-36 649.75,-36 649.75,-30 655.75,-24 661.75,-24"/>
<text text-anchor="middle" x="724.75" y="-119.2" font-family="Times,serif" font-size="11.00" fill="gray">Common</text>
</g>
<g id="clust9" class="cluster"><title>cluster_\Doctrine\Common\Collections</title>
<path fill="none" stroke="gray" d="M669.75,-32C669.75,-32 779.75,-32 779.75,-32 785.75,-32 791.75,-38 791.75,-44 791.75,-44 791.75,-92 791.75,-92 791.75,-98 785.75,-104 779.75,-104 779.75,-104 669.75,-104 669.75,-104 663.75,-104 657.75,-98 657.75,-92 657.75,-92 657.75,-44 657.75,-44 657.75,-38 663.75,-32 669.75,-32"/>
<text text-anchor="middle" x="724.75" y="-91.2" font-family="Times,serif" font-size="11.00" fill="gray">Collections</text>
</g>
<!-- \\AppBundle\\Form\\MedicationResultsType -->
<g id="node1" class="node"><title>\\AppBundle\\Form\\MedicationResultsType</title>
<polygon fill="none" stroke="black" points="803.75,-2072 645.75,-2072 645.75,-2036 803.75,-2036 803.75,-2072"/>
<text text-anchor="middle" x="724.75" y="-2051.2" font-family="Courier,monospace" font-size="11.00">MedicationResultsType</text>
</g>
<!-- \\Symfony\\Component\\Form\\AbstractType -->
<g id="node36" class="node"><title>\\Symfony\\Component\\Form\\AbstractType</title>
<ellipse fill="none" stroke="black" cx="280.125" cy="-1757" rx="203.364" ry="18"/>
<text text-anchor="middle" x="280.125" y="-1753.3" font-family="Times,serif" font-size="14.00" fill="gray">\Symfony\Component\Form\AbstractType</text>
</g>
<!-- \\AppBundle\\Form\\MedicationResultsType&#45;&gt;\\Symfony\\Component\\Form\\AbstractType -->
<g id="edge1" class="edge"><title>\\AppBundle\\Form\\MedicationResultsType&#45;&gt;\\Symfony\\Component\\Form\\AbstractType</title>
<path fill="none" stroke="black" d="M645.616,-2040.92C632.775,-2037.32 619.876,-2032.76 608.25,-2027 477.74,-1962.37 353.641,-1836.45 303.941,-1782.52"/>
<polygon fill="none" stroke="black" points="306.488,-1780.12 297.156,-1775.1 301.322,-1784.84 306.488,-1780.12"/>
</g>
<!-- \\AppBundle\\Form\\CaseType -->
<g id="node2" class="node"><title>\\AppBundle\\Form\\CaseType</title>
<polygon fill="none" stroke="black" points="760.25,-2018 689.25,-2018 689.25,-1982 760.25,-1982 760.25,-2018"/>
<text text-anchor="middle" x="724.75" y="-1997.2" font-family="Courier,monospace" font-size="11.00">CaseType</text>
</g>
<!-- \\AppBundle\\Form\\CaseType&#45;&gt;\\Symfony\\Component\\Form\\AbstractType -->
<g id="edge8" class="edge"><title>\\AppBundle\\Form\\CaseType&#45;&gt;\\Symfony\\Component\\Form\\AbstractType</title>
<path fill="none" stroke="black" d="M689.135,-1995.2C665.647,-1991.16 634.257,-1984.2 608.25,-1973 488.745,-1921.54 365.287,-1826.47 310.433,-1781.63"/>
<polygon fill="none" stroke="black" points="312.484,-1778.79 302.538,-1775.13 308.036,-1784.19 312.484,-1778.79"/>
</g>
<!-- \\AppBundle\\Form\\MedicationsType -->
<g id="node3" class="node"><title>\\AppBundle\\Form\\MedicationsType</title>
<polygon fill="none" stroke="black" points="783.75,-1964 665.75,-1964 665.75,-1928 783.75,-1928 783.75,-1964"/>
<text text-anchor="middle" x="724.75" y="-1943.2" font-family="Courier,monospace" font-size="11.00">MedicationsType</text>
</g>
<!-- \\AppBundle\\Form\\MedicationsType&#45;&gt;\\Symfony\\Component\\Form\\AbstractType -->
<g id="edge10" class="edge"><title>\\AppBundle\\Form\\MedicationsType&#45;&gt;\\Symfony\\Component\\Form\\AbstractType</title>
<path fill="none" stroke="black" d="M665.714,-1935.17C647.097,-1930.98 626.565,-1925.58 608.25,-1919 499.604,-1879.99 379.955,-1814.48 319.964,-1779.93"/>
<polygon fill="none" stroke="black" points="321.615,-1776.84 311.206,-1774.86 318.108,-1782.9 321.615,-1776.84"/>
</g>
<!-- \\AppBundle\\Form\\AdminUserType -->
<g id="node4" class="node"><title>\\AppBundle\\Form\\AdminUserType</title>
<polygon fill="none" stroke="black" points="776.75,-1910 672.75,-1910 672.75,-1874 776.75,-1874 776.75,-1910"/>
<text text-anchor="middle" x="724.75" y="-1889.2" font-family="Courier,monospace" font-size="11.00">AdminUserType</text>
</g>
<!-- \\AppBundle\\Form\\AdminUserType&#45;&gt;\\Symfony\\Component\\Form\\AbstractType -->
<g id="edge13" class="edge"><title>\\AppBundle\\Form\\AdminUserType&#45;&gt;\\Symfony\\Component\\Form\\AbstractType</title>
<path fill="none" stroke="black" d="M672.614,-1881.08C652.456,-1876.5 629.164,-1870.88 608.25,-1865 512.966,-1838.19 404.158,-1800.91 339.138,-1777.9"/>
<polygon fill="none" stroke="black" points="340.074,-1774.51 329.479,-1774.47 337.733,-1781.11 340.074,-1774.51"/>
</g>
<!-- \\AppBundle\\Form\\TestResultsType -->
<g id="node5" class="node"><title>\\AppBundle\\Form\\TestResultsType</title>
<polygon fill="none" stroke="black" points="783.75,-1856 665.75,-1856 665.75,-1820 783.75,-1820 783.75,-1856"/>
<text text-anchor="middle" x="724.75" y="-1835.2" font-family="Courier,monospace" font-size="11.00">TestResultsType</text>
</g>
<!-- \\AppBundle\\Form\\TestResultsType&#45;&gt;\\Symfony\\Component\\Form\\AbstractType -->
<g id="edge15" class="edge"><title>\\AppBundle\\Form\\TestResultsType&#45;&gt;\\Symfony\\Component\\Form\\AbstractType</title>
<path fill="none" stroke="black" d="M665.43,-1827.33C592.758,-1814.03 467.473,-1791.1 379.765,-1775.05"/>
<polygon fill="none" stroke="black" points="380.263,-1771.58 369.796,-1773.23 379.003,-1778.47 380.263,-1771.58"/>
</g>
<!-- \\AppBundle\\Form\\AdminType -->
<g id="node6" class="node"><title>\\AppBundle\\Form\\AdminType</title>
<polygon fill="none" stroke="black" points="763.25,-1802 686.25,-1802 686.25,-1766 763.25,-1766 763.25,-1802"/>
<text text-anchor="middle" x="724.75" y="-1781.2" font-family="Courier,monospace" font-size="11.00">AdminType</text>
</g>
<!-- \\AppBundle\\Form\\AdminType&#45;&gt;\\Symfony\\Component\\Form\\AbstractType -->
<g id="edge16" class="edge"><title>\\AppBundle\\Form\\AdminType&#45;&gt;\\Symfony\\Component\\Form\\AbstractType</title>
<path fill="none" stroke="black" d="M686.012,-1781.7C635.487,-1778.62 542.449,-1772.94 458.289,-1767.81"/>
<polygon fill="none" stroke="black" points="458.268,-1764.3 448.073,-1767.18 457.842,-1771.29 458.268,-1764.3"/>
</g>
<!-- \\AppBundle\\Form\\TestsType -->
<g id="node7" class="node"><title>\\AppBundle\\Form\\TestsType</title>
<polygon fill="none" stroke="black" points="763.25,-1748 686.25,-1748 686.25,-1712 763.25,-1712 763.25,-1748"/>
<text text-anchor="middle" x="724.75" y="-1727.2" font-family="Courier,monospace" font-size="11.00">TestsType</text>
</g>
<!-- \\AppBundle\\Form\\TestsType&#45;&gt;\\Symfony\\Component\\Form\\AbstractType -->
<g id="edge17" class="edge"><title>\\AppBundle\\Form\\TestsType&#45;&gt;\\Symfony\\Component\\Form\\AbstractType</title>
<path fill="none" stroke="black" d="M686.012,-1732.3C635.487,-1735.38 542.449,-1741.06 458.289,-1746.19"/>
<polygon fill="none" stroke="black" points="457.842,-1742.71 448.073,-1746.82 458.268,-1749.7 457.842,-1742.71"/>
</g>
<!-- \\AppBundle\\Form\\DayType -->
<g id="node8" class="node"><title>\\AppBundle\\Form\\DayType</title>
<polygon fill="none" stroke="black" points="756.75,-1694 692.75,-1694 692.75,-1658 756.75,-1658 756.75,-1694"/>
<text text-anchor="middle" x="724.75" y="-1673.2" font-family="Courier,monospace" font-size="11.00">DayType</text>
</g>
<!-- \\AppBundle\\Form\\DayType&#45;&gt;\\Symfony\\Component\\Form\\AbstractType -->
<g id="edge20" class="edge"><title>\\AppBundle\\Form\\DayType&#45;&gt;\\Symfony\\Component\\Form\\AbstractType</title>
<path fill="none" stroke="black" d="M692.626,-1681.7C628.608,-1693.41 479.806,-1720.64 379.81,-1738.94"/>
<polygon fill="none" stroke="black" points="378.893,-1735.55 369.686,-1740.79 380.153,-1742.44 378.893,-1735.55"/>
</g>
<!-- \\AppBundle\\Form\\HotspotType -->
<g id="node9" class="node"><title>\\AppBundle\\Form\\HotspotType</title>
<polygon fill="none" stroke="black" points="770.25,-1640 679.25,-1640 679.25,-1604 770.25,-1604 770.25,-1640"/>
<text text-anchor="middle" x="724.75" y="-1619.2" font-family="Courier,monospace" font-size="11.00">HotspotType</text>
</g>
<!-- \\AppBundle\\Form\\HotspotType&#45;&gt;\\Symfony\\Component\\Form\\AbstractType -->
<g id="edge21" class="edge"><title>\\AppBundle\\Form\\HotspotType&#45;&gt;\\Symfony\\Component\\Form\\AbstractType</title>
<path fill="none" stroke="black" d="M679.087,-1631.46C657.562,-1636.27 631.443,-1642.47 608.25,-1649 512.966,-1675.81 404.158,-1713.09 339.138,-1736.1"/>
<polygon fill="none" stroke="black" points="337.733,-1732.89 329.479,-1739.53 340.074,-1739.49 337.733,-1732.89"/>
</g>
<!-- \\AppBundle\\Form\\AnimalType -->
<g id="node10" class="node"><title>\\AppBundle\\Form\\AnimalType</title>
<polygon fill="none" stroke="black" points="766.75,-1586 682.75,-1586 682.75,-1550 766.75,-1550 766.75,-1586"/>
<text text-anchor="middle" x="724.75" y="-1565.2" font-family="Courier,monospace" font-size="11.00">AnimalType</text>
</g>
<!-- \\AppBundle\\Form\\AnimalType&#45;&gt;\\Symfony\\Component\\Form\\AbstractType -->
<g id="edge22" class="edge"><title>\\AppBundle\\Form\\AnimalType&#45;&gt;\\Symfony\\Component\\Form\\AbstractType</title>
<path fill="none" stroke="black" d="M682.733,-1575.2C660.357,-1579.71 632.38,-1586.34 608.25,-1595 499.604,-1634.01 379.955,-1699.52 319.964,-1734.07"/>
<polygon fill="none" stroke="black" points="318.108,-1731.1 311.206,-1739.14 321.615,-1737.16 318.108,-1731.1"/>
</g>
<!-- \\AppBundle\\Form\\DefaultType -->
<g id="node11" class="node"><title>\\AppBundle\\Form\\DefaultType</title>
<polygon fill="none" stroke="black" points="770.25,-1532 679.25,-1532 679.25,-1496 770.25,-1496 770.25,-1532"/>
<text text-anchor="middle" x="724.75" y="-1511.2" font-family="Courier,monospace" font-size="11.00">DefaultType</text>
</g>
<!-- \\AppBundle\\Form\\DefaultType&#45;&gt;\\Symfony\\Component\\Form\\AbstractType -->
<g id="edge23" class="edge"><title>\\AppBundle\\Form\\DefaultType&#45;&gt;\\Symfony\\Component\\Form\\AbstractType</title>
<path fill="none" stroke="black" d="M678.98,-1520.65C657.074,-1524.85 630.663,-1531.35 608.25,-1541 488.745,-1592.46 365.287,-1687.53 310.433,-1732.37"/>
<polygon fill="none" stroke="black" points="308.036,-1729.81 302.538,-1738.87 312.484,-1735.21 308.036,-1729.81"/>
</g>
<!-- \\AppBundle\\Form\\UserType -->
<g id="node12" class="node"><title>\\AppBundle\\Form\\UserType</title>
<polygon fill="none" stroke="black" points="760.25,-1478 689.25,-1478 689.25,-1442 760.25,-1442 760.25,-1478"/>
<text text-anchor="middle" x="724.75" y="-1457.2" font-family="Courier,monospace" font-size="11.00">UserType</text>
</g>
<!-- \\AppBundle\\Form\\UserType&#45;&gt;\\Symfony\\Component\\Form\\AbstractType -->
<g id="edge24" class="edge"><title>\\AppBundle\\Form\\UserType&#45;&gt;\\Symfony\\Component\\Form\\AbstractType</title>
<path fill="none" stroke="black" d="M689.243,-1463.84C665.519,-1467.48 633.809,-1474.34 608.25,-1487 477.74,-1551.63 353.641,-1677.55 303.941,-1731.48"/>
<polygon fill="none" stroke="black" points="301.322,-1729.16 297.156,-1738.9 306.488,-1733.88 301.322,-1729.16"/>
</g>
<!-- \\AppBundle\\Entity\\HotSpot -->
<g id="node13" class="node"><title>\\AppBundle\\Entity\\HotSpot</title>
<polygon fill="none" stroke="black" points="756.75,-1398 692.75,-1398 692.75,-1362 756.75,-1362 756.75,-1398"/>
<text text-anchor="middle" x="724.75" y="-1377.2" font-family="Courier,monospace" font-size="11.00">HotSpot</text>
</g>
<!-- \\AppBundle\\Entity\\Test -->
<g id="node14" class="node"><title>\\AppBundle\\Entity\\Test</title>
<polygon fill="none" stroke="black" points="751.75,-1344 697.75,-1344 697.75,-1308 751.75,-1308 751.75,-1344"/>
<text text-anchor="middle" x="724.75" y="-1323.2" font-family="Courier,monospace" font-size="11.00">Test</text>
</g>
<!-- \\AppBundle\\Entity\\MedicationResults -->
<g id="node15" class="node"><title>\\AppBundle\\Entity\\MedicationResults</title>
<polygon fill="none" stroke="black" points="790.25,-1290 659.25,-1290 659.25,-1254 790.25,-1254 790.25,-1290"/>
<text text-anchor="middle" x="724.75" y="-1269.2" font-family="Courier,monospace" font-size="11.00">MedicationResults</text>
</g>
<!-- \\AppBundle\\Entity\\TestResults -->
<g id="node16" class="node"><title>\\AppBundle\\Entity\\TestResults</title>
<polygon fill="none" stroke="black" points="770.25,-1236 679.25,-1236 679.25,-1200 770.25,-1200 770.25,-1236"/>
<text text-anchor="middle" x="724.75" y="-1215.2" font-family="Courier,monospace" font-size="11.00">TestResults</text>
</g>
<!-- \\AppBundle\\Entity\\User -->
<g id="node17" class="node"><title>\\AppBundle\\Entity\\User</title>
<polygon fill="none" stroke="black" points="751.75,-1182 697.75,-1182 697.75,-1146 751.75,-1146 751.75,-1182"/>
<text text-anchor="middle" x="724.75" y="-1161.2" font-family="Courier,monospace" font-size="11.00">User</text>
</g>
<!-- \\Symfony\\Component\\Security\\Core\\User\\UserInterface -->
<g id="node39" class="node"><title>\\Symfony\\Component\\Security\\Core\\User\\UserInterface</title>
<ellipse fill="none" stroke="black" cx="280.125" cy="-1191" rx="270.252" ry="18"/>
<text text-anchor="middle" x="280.125" y="-1187.3" font-family="Times,serif" font-size="14.00" fill="gray">\Symfony\Component\Security\Core\User\UserInterface</text>
</g>
<!-- \\AppBundle\\Entity\\User&#45;&gt;\\Symfony\\Component\\Security\\Core\\User\\UserInterface -->
<g id="edge6" class="edge"><title>\\AppBundle\\Entity\\User&#45;&gt;\\Symfony\\Component\\Security\\Core\\User\\UserInterface</title>
<path fill="none" stroke="black" stroke-dasharray="1,5" d="M697.715,-1165.59C656.402,-1168.11 572.083,-1173.25 490.043,-1178.26"/>
<polygon fill="none" stroke="black" points="489.82,-1174.76 480.052,-1178.87 490.247,-1181.75 489.82,-1174.76"/>
</g>
<!-- \\Serializable -->
<g id="node40" class="node"><title>\\Serializable</title>
<ellipse fill="none" stroke="black" cx="280.125" cy="-1137" rx="67.6881" ry="18"/>
<text text-anchor="middle" x="280.125" y="-1133.3" font-family="Times,serif" font-size="14.00" fill="gray">\Serializable</text>
</g>
<!-- \\AppBundle\\Entity\\User&#45;&gt;\\Serializable -->
<g id="edge7" class="edge"><title>\\AppBundle\\Entity\\User&#45;&gt;\\Serializable</title>
<path fill="none" stroke="black" stroke-dasharray="1,5" d="M697.715,-1162.41C631.963,-1158.4 457.278,-1147.75 356.217,-1141.58"/>
<polygon fill="none" stroke="black" points="356.267,-1138.08 346.073,-1140.96 355.841,-1145.06 356.267,-1138.08"/>
</g>
<!-- \\AppBundle\\Entity\\Results -->
<g id="node18" class="node"><title>\\AppBundle\\Entity\\Results</title>
<polygon fill="none" stroke="black" points="756.75,-1128 692.75,-1128 692.75,-1092 756.75,-1092 756.75,-1128"/>
<text text-anchor="middle" x="724.75" y="-1107.2" font-family="Courier,monospace" font-size="11.00">Results</text>
</g>
<!-- \\AppBundle\\Entity\\CaseStudy -->
<g id="node19" class="node"><title>\\AppBundle\\Entity\\CaseStudy</title>
<polygon fill="none" stroke="black" points="763.25,-1074 686.25,-1074 686.25,-1038 763.25,-1038 763.25,-1074"/>
<text text-anchor="middle" x="724.75" y="-1053.2" font-family="Courier,monospace" font-size="11.00">CaseStudy</text>
</g>
<!-- \\AppBundle\\Entity\\Day -->
<g id="node20" class="node"><title>\\AppBundle\\Entity\\Day</title>
<polygon fill="none" stroke="black" points="751.75,-1020 697.75,-1020 697.75,-984 751.75,-984 751.75,-1020"/>
<text text-anchor="middle" x="724.75" y="-999.2" font-family="Courier,monospace" font-size="11.00">Day</text>
</g>
<!-- \\AppBundle\\Entity\\Medication -->
<g id="node21" class="node"><title>\\AppBundle\\Entity\\Medication</title>
<polygon fill="none" stroke="black" points="766.75,-966 682.75,-966 682.75,-930 766.75,-930 766.75,-966"/>
<text text-anchor="middle" x="724.75" y="-945.2" font-family="Courier,monospace" font-size="11.00">Medication</text>
</g>
<!-- \\AppBundle\\Entity\\UserDay -->
<g id="node22" class="node"><title>\\AppBundle\\Entity\\UserDay</title>
<polygon fill="none" stroke="black" points="756.75,-912 692.75,-912 692.75,-876 756.75,-876 756.75,-912"/>
<text text-anchor="middle" x="724.75" y="-891.2" font-family="Courier,monospace" font-size="11.00">UserDay</text>
</g>
<!-- \\AppBundle\\Entity\\HotSpotInfo -->
<g id="node23" class="node"><title>\\AppBundle\\Entity\\HotSpotInfo</title>
<polygon fill="none" stroke="black" points="770.25,-858 679.25,-858 679.25,-822 770.25,-822 770.25,-858"/>
<text text-anchor="middle" x="724.75" y="-837.2" font-family="Courier,monospace" font-size="11.00">HotSpotInfo</text>
</g>
<!-- \\AppBundle\\Entity\\Animal -->
<g id="node24" class="node"><title>\\AppBundle\\Entity\\Animal</title>
<polygon fill="none" stroke="black" points="753.25,-804 696.25,-804 696.25,-768 753.25,-768 753.25,-804"/>
<text text-anchor="middle" x="724.75" y="-783.2" font-family="Courier,monospace" font-size="11.00">Animal</text>
</g>
<!-- \\AppBundle\\Controller\\DefaultController -->
<g id="node25" class="node"><title>\\AppBundle\\Controller\\DefaultController</title>
<polygon fill="none" stroke="black" points="790.25,-724 659.25,-724 659.25,-688 790.25,-688 790.25,-724"/>
<text text-anchor="middle" x="724.75" y="-703.2" font-family="Courier,monospace" font-size="11.00">DefaultController</text>
</g>
<!-- \\Symfony\\Bundle\\FrameworkBundle\\Controller\\Controller -->
<g id="node37" class="node"><title>\\Symfony\\Bundle\\FrameworkBundle\\Controller\\Controller</title>
<ellipse fill="none" stroke="black" cx="280.125" cy="-544" rx="280.25" ry="18"/>
<text text-anchor="middle" x="280.125" y="-540.3" font-family="Times,serif" font-size="14.00" fill="gray">\Symfony\Bundle\FrameworkBundle\Controller\Controller</text>
</g>
<!-- \\AppBundle\\Controller\\DefaultController&#45;&gt;\\Symfony\\Bundle\\FrameworkBundle\\Controller\\Controller -->
<g id="edge2" class="edge"><title>\\AppBundle\\Controller\\DefaultController&#45;&gt;\\Symfony\\Bundle\\FrameworkBundle\\Controller\\Controller</title>
<path fill="none" stroke="black" d="M659.098,-692.829C642.387,-688.897 624.525,-684.222 608.25,-679 505.865,-646.145 390.579,-595.116 327.885,-566.119"/>
<polygon fill="none" stroke="black" points="329.198,-562.87 318.655,-561.832 326.25,-569.218 329.198,-562.87"/>
</g>
<!-- \\AppBundle\\Controller\\MedicationsController -->
<g id="node26" class="node"><title>\\AppBundle\\Controller\\MedicationsController</title>
<polygon fill="none" stroke="black" points="803.75,-670 645.75,-670 645.75,-634 803.75,-634 803.75,-670"/>
<text text-anchor="middle" x="724.75" y="-649.2" font-family="Courier,monospace" font-size="11.00">MedicationsController</text>
</g>
<!-- \\AppBundle\\Controller\\MedicationsController&#45;&gt;\\Symfony\\Bundle\\FrameworkBundle\\Controller\\Controller -->
<g id="edge3" class="edge"><title>\\AppBundle\\Controller\\MedicationsController&#45;&gt;\\Symfony\\Bundle\\FrameworkBundle\\Controller\\Controller</title>
<path fill="none" stroke="black" d="M646.057,-633.985C633.414,-631.011 620.463,-627.939 608.25,-625 523.575,-604.62 426.767,-580.554 360.566,-563.979"/>
<polygon fill="none" stroke="black" points="361.169,-560.522 350.618,-561.487 359.468,-567.312 361.169,-560.522"/>
</g>
<!-- \\AppBundle\\Controller\\DayController -->
<g id="node27" class="node"><title>\\AppBundle\\Controller\\DayController</title>
<polygon fill="none" stroke="black" points="776.75,-616 672.75,-616 672.75,-580 776.75,-580 776.75,-616"/>
<text text-anchor="middle" x="724.75" y="-595.2" font-family="Courier,monospace" font-size="11.00">DayController</text>
</g>
<!-- \\AppBundle\\Controller\\DayController&#45;&gt;\\Symfony\\Bundle\\FrameworkBundle\\Controller\\Controller -->
<g id="edge4" class="edge"><title>\\AppBundle\\Controller\\DayController&#45;&gt;\\Symfony\\Bundle\\FrameworkBundle\\Controller\\Controller</title>
<path fill="none" stroke="black" d="M672.543,-591.753C611.58,-584.315 507.255,-571.588 421.633,-561.142"/>
<polygon fill="none" stroke="black" points="421.905,-557.649 411.555,-559.912 421.057,-564.598 421.905,-557.649"/>
</g>
<!-- \\AppBundle\\Controller\\AdminController -->
<g id="node28" class="node"><title>\\AppBundle\\Controller\\AdminController</title>
<polygon fill="none" stroke="black" points="783.75,-562 665.75,-562 665.75,-526 783.75,-526 783.75,-562"/>
<text text-anchor="middle" x="724.75" y="-541.2" font-family="Courier,monospace" font-size="11.00">AdminController</text>
</g>
<!-- \\AppBundle\\Controller\\AdminController&#45;&gt;\\Symfony\\Bundle\\FrameworkBundle\\Controller\\Controller -->
<g id="edge9" class="edge"><title>\\AppBundle\\Controller\\AdminController&#45;&gt;\\Symfony\\Bundle\\FrameworkBundle\\Controller\\Controller</title>
<path fill="none" stroke="black" d="M665.43,-544C639.251,-544 606.246,-544 570.629,-544"/>
<polygon fill="none" stroke="black" points="570.517,-540.5 560.517,-544 570.517,-547.5 570.517,-540.5"/>
</g>
<!-- \\AppBundle\\Controller\\TestsController -->
<g id="node29" class="node"><title>\\AppBundle\\Controller\\TestsController</title>
<polygon fill="none" stroke="black" points="783.75,-508 665.75,-508 665.75,-472 783.75,-472 783.75,-508"/>
<text text-anchor="middle" x="724.75" y="-487.2" font-family="Courier,monospace" font-size="11.00">TestsController</text>
</g>
<!-- \\AppBundle\\Controller\\TestsController&#45;&gt;\\Symfony\\Bundle\\FrameworkBundle\\Controller\\Controller -->
<g id="edge14" class="edge"><title>\\AppBundle\\Controller\\TestsController&#45;&gt;\\Symfony\\Bundle\\FrameworkBundle\\Controller\\Controller</title>
<path fill="none" stroke="black" d="M665.43,-497.115C603.734,-504.642 504.116,-516.795 421.764,-526.842"/>
<polygon fill="none" stroke="black" points="421.313,-523.371 411.81,-528.056 422.161,-530.32 421.313,-523.371"/>
</g>
<!-- \\AppBundle\\Controller\\UserController -->
<g id="node30" class="node"><title>\\AppBundle\\Controller\\UserController</title>
<polygon fill="none" stroke="black" points="780.25,-454 669.25,-454 669.25,-418 780.25,-418 780.25,-454"/>
<text text-anchor="middle" x="724.75" y="-433.2" font-family="Courier,monospace" font-size="11.00">UserController</text>
</g>
<!-- \\AppBundle\\Controller\\UserController&#45;&gt;\\Symfony\\Bundle\\FrameworkBundle\\Controller\\Controller -->
<g id="edge18" class="edge"><title>\\AppBundle\\Controller\\UserController&#45;&gt;\\Symfony\\Bundle\\FrameworkBundle\\Controller\\Controller</title>
<path fill="none" stroke="black" d="M669.075,-448.627C649.835,-453.111 628.071,-458.23 608.25,-463 523.575,-483.38 426.767,-507.446 360.566,-524.021"/>
<polygon fill="none" stroke="black" points="359.468,-520.688 350.618,-526.513 361.169,-527.478 359.468,-520.688"/>
</g>
<!-- \\AppBundle\\Controller\\HotSpotController -->
<g id="node31" class="node"><title>\\AppBundle\\Controller\\HotSpotController</title>
<polygon fill="none" stroke="black" points="790.25,-400 659.25,-400 659.25,-364 790.25,-364 790.25,-400"/>
<text text-anchor="middle" x="724.75" y="-379.2" font-family="Courier,monospace" font-size="11.00">HotSpotController</text>
</g>
<!-- \\AppBundle\\Controller\\HotSpotController&#45;&gt;\\Symfony\\Bundle\\FrameworkBundle\\Controller\\Controller -->
<g id="edge19" class="edge"><title>\\AppBundle\\Controller\\HotSpotController&#45;&gt;\\Symfony\\Bundle\\FrameworkBundle\\Controller\\Controller</title>
<path fill="none" stroke="black" d="M659.098,-395.171C642.387,-399.103 624.525,-403.778 608.25,-409 505.865,-441.855 390.579,-492.884 327.885,-521.881"/>
<polygon fill="none" stroke="black" points="326.25,-518.782 318.655,-526.168 329.198,-525.13 326.25,-518.782"/>
</g>
<!-- \\AppBundle\\EventListener\\AnimalImageUploadListener -->
<g id="node32" class="node"><title>\\AppBundle\\EventListener\\AnimalImageUploadListener</title>
<polygon fill="none" stroke="black" points="817.25,-320 632.25,-320 632.25,-284 817.25,-284 817.25,-320"/>
<text text-anchor="middle" x="724.75" y="-299.2" font-family="Courier,monospace" font-size="11.00">AnimalImageUploadListener</text>
</g>
<!-- \\AppBundle\\AppBundle -->
<g id="node33" class="node"><title>\\AppBundle\\AppBundle</title>
<polygon fill="none" stroke="black" points="763.25,-266 686.25,-266 686.25,-230 763.25,-230 763.25,-266"/>
<text text-anchor="middle" x="724.75" y="-245.2" font-family="Courier,monospace" font-size="11.00">AppBundle</text>
</g>
<!-- \\Symfony\\Component\\HttpKernel\\Bundle\\Bundle -->
<g id="node38" class="node"><title>\\Symfony\\Component\\HttpKernel\\Bundle\\Bundle</title>
<ellipse fill="none" stroke="black" cx="280.125" cy="-248" rx="236.658" ry="18"/>
<text text-anchor="middle" x="280.125" y="-244.3" font-family="Times,serif" font-size="14.00" fill="gray">\Symfony\Component\HttpKernel\Bundle\Bundle</text>
</g>
<!-- \\AppBundle\\AppBundle&#45;&gt;\\Symfony\\Component\\HttpKernel\\Bundle\\Bundle -->
<g id="edge5" class="edge"><title>\\AppBundle\\AppBundle&#45;&gt;\\Symfony\\Component\\HttpKernel\\Bundle\\Bundle</title>
<path fill="none" stroke="black" d="M686.012,-248C649.002,-248 589.181,-248 526.748,-248"/>
<polygon fill="none" stroke="black" points="526.708,-244.5 516.708,-248 526.708,-251.5 526.708,-244.5"/>
</g>
<!-- \\AppBundle\\FileUploader -->
<g id="node34" class="node"><title>\\AppBundle\\FileUploader</title>
<polygon fill="none" stroke="black" points="773.75,-212 675.75,-212 675.75,-176 773.75,-176 773.75,-212"/>
<text text-anchor="middle" x="724.75" y="-191.2" font-family="Courier,monospace" font-size="11.00">FileUploader</text>
</g>
<!-- \\Doctrine\\Common\\Collections\\ArrayCollection -->
<g id="node35" class="node"><title>\\Doctrine\\Common\\Collections\\ArrayCollection</title>
<polygon fill="none" stroke="black" points="783.75,-76 665.75,-76 665.75,-40 783.75,-40 783.75,-76"/>
<text text-anchor="middle" x="724.75" y="-55.2" font-family="Courier,monospace" font-size="11.00">ArrayCollection</text>
</g>
<!-- \\Doctrine\\Common\\Collections\\Collection -->
<g id="node41" class="node"><title>\\Doctrine\\Common\\Collections\\Collection</title>
<ellipse fill="none" stroke="black" cx="280.125" cy="-85" rx="204.164" ry="18"/>
<text text-anchor="middle" x="280.125" y="-81.3" font-family="Times,serif" font-size="14.00" fill="gray">\Doctrine\Common\Collections\Collection</text>
</g>
<!-- \\Doctrine\\Common\\Collections\\ArrayCollection&#45;&gt;\\Doctrine\\Common\\Collections\\Collection -->
<g id="edge11" class="edge"><title>\\Doctrine\\Common\\Collections\\ArrayCollection&#45;&gt;\\Doctrine\\Common\\Collections\\Collection</title>
<path fill="none" stroke="black" stroke-dasharray="1,5" d="M665.43,-61.5575C612.742,-64.7715 532.397,-69.6725 458.768,-74.1638"/>
<polygon fill="none" stroke="black" points="458.195,-70.6922 448.427,-74.7946 458.622,-77.6792 458.195,-70.6922"/>
</g>
<!-- \\Doctrine\\Common\\Collections\\Selectable -->
<g id="node42" class="node"><title>\\Doctrine\\Common\\Collections\\Selectable</title>
<ellipse fill="none" stroke="black" cx="280.125" cy="-31" rx="204.964" ry="18"/>
<text text-anchor="middle" x="280.125" y="-27.3" font-family="Times,serif" font-size="14.00" fill="gray">\Doctrine\Common\Collections\Selectable</text>
</g>
<!-- \\Doctrine\\Common\\Collections\\ArrayCollection&#45;&gt;\\Doctrine\\Common\\Collections\\Selectable -->
<g id="edge12" class="edge"><title>\\Doctrine\\Common\\Collections\\ArrayCollection&#45;&gt;\\Doctrine\\Common\\Collections\\Selectable</title>
<path fill="none" stroke="black" stroke-dasharray="1,5" d="M665.43,-54.4425C612.854,-51.2353 532.739,-46.3484 459.238,-41.8648"/>
<polygon fill="none" stroke="black" points="459.109,-38.3505 448.914,-41.2351 458.683,-45.3376 459.109,-38.3505"/>
</g>
</g>
</svg>
